<svg width="26" height="30" viewBox="0 0 26 30" fill="none" xmlns="http://www.w3.org/2000/svg">
    <path d="M7.73342 1.54234C7.54871 2.04106 7.53127 2.59934 7.53127 3.13865C7.5483 3.71169 7.55104 4.25654 7.48322 4.81025C6.77815 4.94616 6.23783 5.20015 5.90048 5.59163C5.54498 6.00419 5.40435 6.49529 5.29041 6.97949C5.06254 7.94789 4.95079 8.9529 3.95424 10.0153C3.67891 10.311 3.88656 10.7929 4.29055 10.7958C4.62437 10.7958 4.9706 10.7625 5.31489 10.7017C5.82439 14.4626 4.64318 16.3484 3.24899 18.1585C1.82431 20.0083 0.103455 21.7835 0.103455 24.9808C0.103455 26.7195 0.918672 27.923 2.15213 28.5777C3.38559 29.2325 4.98555 29.4135 6.71905 29.4135C6.72931 29.4139 6.73961 29.4139 6.74986 29.4135C8.53526 29.2942 9.97842 28.7827 11.1019 27.9822C12.844 28.3959 14.434 28.1394 15.8021 27.4229C17.2277 26.6763 18.4197 25.4507 19.4163 23.9972C21.2439 21.3318 22.4272 17.8832 23.094 14.9975C23.2791 15.1389 23.4704 15.2677 23.665 15.3801C24.0168 15.5846 24.4428 15.2696 24.3504 14.8734C24.0393 13.5436 24.4183 12.6762 24.6894 11.7759C24.825 11.3257 24.9406 10.8549 24.8435 10.3436C24.7525 9.86435 24.4245 9.4042 23.9216 8.96304C24.0882 8.48493 24.4386 7.9891 24.6685 7.5924C24.9233 7.15121 25.1724 6.68527 25.2578 6.1846C25.3832 5.42292 25.2221 5.1595 24.6314 4.75961C24.0248 4.42105 23.609 4.53627 23.0822 4.92731C22.6913 5.25159 22.4123 5.70267 22.1575 6.14384C21.9017 6.61187 21.6546 7.05819 21.3453 7.47637C20.7112 7.26092 20.1483 7.20574 19.6873 7.36673C19.196 7.53829 18.8446 7.87362 18.5225 8.2161C17.8784 8.90107 17.3177 9.66446 16.0106 10.0599C15.6228 10.1788 15.5633 10.7028 15.9145 10.9057C16.1809 11.0595 16.4716 11.192 16.773 11.3027C16.0048 13.1665 15.0759 14.276 14.058 15.0456C13.7921 13.5235 13.4231 12.0566 13.0201 10.7425C13.2775 10.7774 13.5344 10.796 13.7843 10.796C14.1895 10.7954 14.3995 10.3121 14.1233 10.0155C13.1267 8.95307 13.015 7.94806 12.7871 6.97966C12.6732 6.49546 12.5289 6.00441 12.1734 5.59184C11.8361 5.20039 11.2993 4.94635 10.5943 4.81042C10.4842 4.27805 10.5455 3.63103 10.5463 3.13887C10.5463 2.59956 10.5289 2.04123 10.3441 1.54251C10.0943 0.892276 9.61275 0.586182 9.03877 0.586182C8.34222 0.586182 7.94819 0.98303 7.73342 1.54251L7.73342 1.54234ZM9.47388 1.86414C9.57926 2.14866 9.61802 2.63372 9.61802 3.13865C9.61802 3.64362 9.58864 4.16437 9.62173 4.609C9.63491 5.20627 9.9337 5.47336 10.3805 5.68861C10.9893 5.79393 11.2803 5.97573 11.4719 6.19811C12.2161 7.21397 12.0302 9.12443 13.0129 9.68896C12.1052 9.58266 11.43 9.3736 10.7349 8.83597C10.5043 8.59853 10.5849 8.28398 10.5908 8.01106C10.5903 7.7558 10.3838 7.54886 10.1285 7.54786C9.87181 7.54684 9.66305 7.75439 9.66255 8.01106C9.65378 8.72319 9.57779 9.5185 9.3507 10.1794C9.26045 10.436 9.15536 10.6261 9.03888 10.6261C8.92239 10.6261 8.81731 10.436 8.72706 10.1794C8.4925 9.37807 8.42984 8.76989 8.4152 8.01106C8.41474 7.75439 8.20595 7.54684 7.94926 7.54786C7.694 7.54888 7.48745 7.7558 7.48695 8.01106C7.58005 8.37258 7.43353 8.59882 7.34284 8.83597C6.7093 9.43295 5.84042 9.56114 5.06482 9.68896C6.04249 8.7928 6.03839 7.2561 6.60586 6.19811C6.79748 5.97573 7.08845 5.79386 7.69728 5.68861C8.28369 5.52039 8.38416 5.10786 8.45602 4.609C8.48897 4.16437 8.45973 3.64362 8.45973 3.13865C8.45973 2.63372 8.49848 2.14866 8.60386 1.86414C8.81633 1.38988 9.27484 1.3685 9.47389 1.86414H9.47388ZM24.3431 6.02678C24.2961 6.30229 24.1011 6.71495 23.8636 7.12635C23.6261 7.53778 23.356 7.94794 23.1719 8.32924C22.8942 8.83707 22.9726 9.28795 23.2925 9.60469C23.7348 9.9739 23.8823 10.2539 23.9325 10.5184C23.9835 10.7873 23.9256 11.0976 23.8019 11.5083C23.5504 12.3044 23.2794 12.857 23.3186 13.8521C22.441 13.034 21.9368 12.4207 22.4078 11.5917C22.5361 11.3692 22.4593 11.0849 22.2365 10.9572C22.014 10.8289 21.7296 10.9056 21.6019 11.1285C21.2753 11.7107 20.8024 12.2877 20.331 12.7421C20.1379 12.9077 19.9648 13.0125 19.8909 12.9701C19.817 12.9278 19.8217 12.7256 19.8686 12.4756C20.051 11.7125 20.289 11.1925 20.6291 10.5665C20.7574 10.3452 20.6824 10.0618 20.4614 9.93289C20.3549 9.87059 20.2281 9.85341 20.1088 9.88484C19.9889 9.91585 19.8865 9.99366 19.8242 10.1006C19.4297 10.9964 17.867 10.7154 17.1092 10.4496C18.0544 10.3311 19.0509 8.8328 19.9919 8.24317C20.2461 8.15433 20.5622 8.14176 21.1032 8.34011C21.6827 8.48658 21.9588 8.18996 22.2672 7.80802C22.5054 7.45801 22.7249 7.02106 22.9624 6.60965C23.2 6.19824 23.4598 5.82173 23.6749 5.6433C23.9888 5.37688 24.4098 5.61371 24.3431 6.02678H24.3431ZM9.03877 11.725C10.0019 11.725 10.2276 10.5324 10.4185 9.78326C10.8984 10.132 11.4572 10.3316 11.9704 10.5121C13.0148 13.7482 13.8884 18.1295 13.4135 21.7218C13.1704 23.5608 12.5784 25.1782 11.5226 26.364C11.2827 26.6333 11.0181 26.8823 10.7267 27.1073C10.718 27.1129 10.7095 27.1198 10.7013 27.1264C9.71588 27.8786 8.42119 28.3642 6.70182 28.4817C5.04587 28.4803 3.57643 28.2843 2.58724 27.7591C1.59392 27.2318 1.0317 26.4541 1.0317 24.9807C1.0317 22.1099 2.51272 20.6311 3.98143 18.7241C5.43114 16.8419 6.79448 14.5422 6.22048 10.4759C6.75387 10.3193 7.22115 10.0545 7.65908 9.78339C7.85458 10.7356 8.28191 11.7251 9.03877 11.7251V11.725ZM19.1154 11.6723C18.9343 12.1671 18.9043 12.6993 18.9159 13.1807C18.9567 13.4489 19.0686 13.7374 19.3511 13.9005C19.6335 14.0636 19.9451 14.0161 20.1977 13.9181C20.7045 13.6977 21.0508 13.3473 21.4025 12.9907C21.6271 13.4849 21.981 13.9016 22.3044 14.2798C21.6806 17.1803 20.4764 20.8089 18.6494 23.4734C17.7109 24.8422 16.6132 25.9501 15.3706 26.6008C14.3604 27.1299 13.2558 27.37 12.0066 27.2073C12.0788 27.1334 12.1494 27.0583 12.2179 26.9816C13.4377 25.6116 14.0725 23.8034 14.3318 21.8417C14.5757 19.9972 14.4918 18.0069 14.2194 16.0674C15.5274 15.1852 16.7498 13.8414 17.6731 11.5603C18.1645 11.6597 18.6821 11.6811 19.1154 11.6727L19.1154 11.6723ZM10.8137 12.266C10.5694 12.3451 10.4358 12.6076 10.5154 12.8516C11.5832 16.0954 12.2245 19.7051 11.1455 22.969C11.0655 23.2121 11.1972 23.474 11.4401 23.5546C11.6834 23.6351 11.946 23.5033 12.0266 23.26C13.2032 19.7009 12.496 15.8926 11.3993 12.5606C11.2717 12.2408 11.0619 12.2053 10.8137 12.266ZM20.0164 15.4896C19.3596 18.6386 18.1805 21.8812 15.7677 24.0314C15.5749 24.2021 15.5579 24.4969 15.7296 24.6886C15.9003 24.882 16.1959 24.8991 16.3877 24.7268C19.0327 22.3696 20.2481 18.9181 20.9238 15.6782C20.9757 15.4274 20.8147 15.1819 20.5639 15.1297C20.2816 15.0815 20.0972 15.1809 20.0164 15.4896H20.0164ZM10.2725 24.4149C10.0863 24.624 9.8789 24.8129 9.64884 24.9833C9.44374 25.1359 9.40077 25.4258 9.55275 25.6314C9.70455 25.8368 9.99381 25.881 10.2 25.7301C10.4822 25.5212 10.737 25.2864 10.9642 25.0313C11.1341 24.8399 11.117 24.5471 10.9261 24.3768C10.6871 24.184 10.4416 24.2463 10.2725 24.4149H10.2725Z" fill="url(#paint0_linear_6_43)"/>
    <defs>
    <linearGradient id="paint0_linear_6_43" x1="12.7005" y1="0.586182" x2="12.7005" y2="29.4138" gradientUnits="userSpaceOnUse">
    <stop stop-color="#C39F4B"/>
    <stop offset="1" stop-color="#DEBB69"/>
    </linearGradient>
    </defs>
</svg>
