<svg width="32" height="27" viewBox="0 0 32 27" fill="none" xmlns="http://www.w3.org/2000/svg">
    <path fill-rule="evenodd" clip-rule="evenodd" d="M12.4471 9.26871C12.7147 9.0531 12.8991 8.99986 13.2366 8.82295C12.9483 9.58708 12.4274 10.6656 12.3871 12.8726C12.3817 13.1554 12.6061 13.3882 12.8888 13.3933C13.1715 13.3995 13.4054 13.1743 13.4105 12.8916C13.4584 10.2732 14.4299 8.03743 14.4299 8.03743C14.5773 7.70223 14.3353 7.32529 13.9692 7.31984C13.8978 7.31881 13.8269 7.33367 13.7613 7.36076C13.7613 7.36076 12.5918 7.83783 11.8044 8.47216C11.5982 8.63828 11.4106 8.81186 11.2278 8.98786C11.0896 8.4945 10.9339 7.99741 10.743 7.49369C9.91832 5.3156 8.57275 3.58306 7.26102 2.43561C6.60516 1.86188 5.9591 1.43216 5.36811 1.16633C4.92486 0.966947 4.50834 0.835818 4.10683 0.86651L4.10682 0.866697C3.97298 0.875933 3.84096 0.905161 3.71004 0.954723C3.18633 1.15295 2.87341 1.62239 2.60668 2.21301C2.33994 2.80362 2.14041 3.55046 2.029 4.41472C1.80619 6.14325 1.94487 8.33412 2.76958 10.5122C2.87917 10.8007 2.99291 11.0826 3.11338 11.3578C3.16732 11.4814 3.22187 11.6059 3.27929 11.7286C3.39947 11.9839 3.70333 12.093 3.9589 11.9734C4.21566 11.8547 4.32789 11.5504 4.20876 11.2938C4.15609 11.1813 4.10504 11.0674 4.05384 10.95C4.05282 10.9485 4.05129 10.9485 4.04975 10.9454C3.93616 10.686 3.82857 10.4216 3.72494 10.1488C3.64593 9.94014 3.57764 9.73108 3.51206 9.52217C3.93401 9.54249 4.35063 9.54158 4.75835 9.50202C4.89727 9.88224 5.04703 10.2582 5.20709 10.6304C5.16236 10.6319 5.11792 10.6427 5.07316 10.6442C4.79038 10.6535 4.56883 10.8902 4.57844 11.173C4.58756 11.4557 4.82438 11.6773 5.10714 11.6677C5.29105 11.6615 5.47512 11.6359 5.65883 11.6127C5.90812 12.1216 6.17399 12.6248 6.46436 13.1178C3.51621 12.1857 0.551752 12.3703 0.551752 12.3703C0.0466156 12.3992 -0.114107 13.066 0.321888 13.3227C0.321888 13.3227 1.13632 13.8037 1.25835 13.8774H1.26244C3.63791 15.3081 4.85805 17.4262 5.94975 19.2753C6.49561 20.1998 7.00243 21.0563 7.64578 21.7159C8.28914 22.3755 9.11781 22.8282 10.1354 22.8183C10.4181 22.8137 10.6443 22.5833 10.6411 22.3006C10.638 22.0179 10.4071 21.7916 10.1244 21.7949C9.39426 21.8026 8.89569 21.5307 8.37936 21.0013C7.86303 20.4719 7.37754 19.6748 6.83425 18.7546C5.84291 17.0755 4.52633 15.0427 2.33083 13.4886C3.94625 13.5545 6.40182 13.7857 8.47131 15.0767C8.22115 16.166 8.09903 17.2585 8.11851 18.3498C8.12342 18.6324 8.35659 18.8575 8.63921 18.8525C8.92224 18.8464 9.1475 18.6139 9.14192 18.3309C9.12193 17.2105 9.25334 16.0893 9.5482 14.9393C9.83389 12.9634 10.5976 10.7598 12.4471 9.26894V9.26871ZM29.5512 0.870831C29.3666 0.878527 29.1743 0.90114 28.9766 0.932693C28.1856 1.05875 27.2743 1.37316 26.2981 1.86917C24.3457 2.86116 22.1407 4.5851 20.3195 7.0522C20.2003 7.2135 20.0823 7.37285 19.9677 7.53493C19.8042 7.7666 19.8602 8.08707 20.0927 8.24951C20.3224 8.41042 20.6388 8.3565 20.8023 8.1287C20.9128 7.97243 21.0273 7.8151 21.1421 7.65997C22.5836 5.70714 24.2877 4.25111 25.8624 3.28946C26.37 3.94454 27.0618 4.6267 27.6283 5.06843C27.9263 5.30042 28.2456 5.49962 28.5748 5.68409C28.3119 6.31254 28.0156 6.91598 27.7023 7.50801C26.9699 7.15437 26.3073 6.68097 25.7614 6.08984C25.9112 5.93435 26.0578 5.77595 26.2121 5.62411C26.4126 5.4266 26.4155 5.1042 26.2191 4.90253C26.1201 4.80079 25.9832 4.74452 25.8413 4.74761C25.7109 4.75223 25.5863 4.80285 25.4935 4.89459C25.3676 5.01865 25.2495 5.14824 25.1267 5.2744C25.0556 5.16343 24.9878 5.04923 24.9238 4.93259C24.8274 4.7564 24.6363 4.65363 24.4361 4.66875C24.3631 4.6749 24.292 4.69675 24.2282 4.73277C23.982 4.86822 23.891 5.17704 24.0243 5.42438C24.1408 5.63691 24.2728 5.83949 24.4121 6.03699C24.0403 6.45152 23.684 6.8762 23.3397 7.30927C23.2809 7.22231 23.216 7.14257 23.1598 7.05243C23.0685 6.90821 22.9108 6.81797 22.7401 6.81358C22.639 6.80896 22.5393 6.83653 22.4532 6.88963C22.2129 7.03954 22.1396 7.35638 22.2903 7.59623C22.413 7.79318 22.5458 7.98168 22.6821 8.16689C22.3347 8.61499 22.0098 9.10688 21.7217 9.54307C21.6607 9.44441 21.6 9.34597 21.5428 9.24325C21.4452 9.0686 21.2554 8.96658 21.056 8.98242C20.983 8.98857 20.912 9.01042 20.8482 9.04644C20.6025 9.1845 20.5142 9.49581 20.6513 9.74205C20.7959 10.0015 20.955 10.2468 21.123 10.4836C20.7919 11.0258 20.4703 11.5744 20.1755 12.1447C20.0731 10.2254 19.5473 8.23914 18.2796 6.34198C17.5546 5.25634 16.2618 4.17728 16.2618 4.17728C16.1759 4.10432 16.0685 4.06181 15.956 4.05642C15.6421 4.04088 15.3893 4.31079 15.4233 4.62309C15.4233 4.62309 15.9657 9.8951 13.6593 13.9727C12.4431 16.123 11.5376 17.9683 11.2726 19.6305C11.0889 20.7834 11.2712 21.8665 11.8733 22.7977L9.29278 25.788C9.10825 26.0018 9.132 26.3249 9.34575 26.5096C9.55861 26.695 9.88157 26.6732 10.0673 26.4606L12.5379 23.5982C12.6588 23.7135 12.7802 23.829 12.9187 23.9371C13.1234 24.0966 13.3265 24.2372 13.5274 24.3658L12.311 25.814C12.1293 26.0308 12.1578 26.3542 12.375 26.5355C12.5919 26.7173 12.9152 26.6887 13.0966 26.4715L14.4528 24.8565C15.3844 25.2515 16.2706 25.3246 17.1043 25.1233C18.3842 24.8142 19.4945 23.9512 20.6593 22.9326C22.9888 20.8952 25.5509 18.1721 29.6601 17.1719C29.8549 17.1243 31.0803 16.8431 31.0803 16.8431C31.5753 16.7295 31.6211 16.0419 31.1453 15.8646C31.1453 15.8646 29.5433 15.2253 27.2895 14.7803C27.5983 14.4045 27.905 14.0177 28.2059 13.6099C30.0271 11.1431 31.1101 8.41408 31.572 6.14517C31.803 5.0107 31.8814 3.99356 31.8059 3.15789C31.7304 2.32223 31.5334 1.63078 30.9864 1.22702C30.5944 0.937608 30.1051 0.845903 29.5512 0.871207L29.5512 0.870831ZM29.5852 1.89923C29.6375 1.89822 29.6772 1.9054 29.7251 1.90694C29.5299 2.90131 29.2605 3.83177 28.9406 4.72131C28.7049 4.58109 28.476 4.42956 28.259 4.26056C27.7968 3.90024 27.2097 3.33543 26.7608 2.78141C26.7615 2.78109 26.7622 2.78089 26.7628 2.78038C27.6638 2.32261 28.4921 2.04516 29.1395 1.94189C29.3013 1.91603 29.4504 1.90323 29.5852 1.89985L29.5852 1.89923ZM4.16978 1.90078C4.31546 1.90129 4.59925 1.94127 4.94933 2.09868C5.41611 2.30862 5.99051 2.68649 6.5844 3.20599C6.98813 3.55917 7.39912 3.98311 7.79671 4.46132C7.56738 4.67702 7.33254 4.87374 7.09111 5.05096C6.79528 4.53375 6.48104 4.02305 6.14265 3.52282C6.04642 3.38198 5.8864 3.29852 5.7159 3.29998C5.61375 3.29966 5.51385 3.32998 5.42906 3.38693C5.19537 3.54571 5.13452 3.86375 5.29314 4.09752C5.62626 4.58998 5.93404 5.09123 6.2236 5.59968C5.78924 5.82374 5.33419 5.99073 4.85739 6.10538C4.77348 5.68993 4.70005 5.26983 4.63951 4.84513C4.60375 4.58339 4.37474 4.39209 4.11081 4.40336C4.093 4.40489 4.0753 4.40798 4.05785 4.41106C3.77844 4.45092 3.58373 4.70924 3.6231 4.98872C3.68401 5.4161 3.75709 5.83895 3.84097 6.258C3.55741 6.28031 3.26661 6.28646 2.96747 6.27538C2.94951 5.65969 2.9774 5.07523 3.04543 4.54737C3.1463 3.76476 3.32948 3.09794 3.54015 2.63148C3.75081 2.16502 4.01169 1.93302 4.07284 1.9099C4.08814 1.90374 4.12125 1.90064 4.16979 1.90064L4.16978 1.90078ZM30.6416 2.54439C30.7041 2.73334 30.7603 2.96127 30.7865 3.25099C30.8391 3.83246 30.7973 4.58719 30.6586 5.43575C30.3841 5.36095 30.1196 5.27212 29.865 5.16989C30.171 4.33518 30.439 3.46738 30.6416 2.54439H30.6416ZM8.12252 7.07592C7.95337 6.69805 7.77209 6.32524 7.58183 5.95554C7.87163 5.75308 8.15054 5.52555 8.42035 5.27896C8.66076 5.624 8.891 5.99014 9.10396 6.37829L8.12252 7.07592ZM17.4292 6.90804C19.2242 9.5945 19.3155 12.7561 18.8894 15.3922C18.3793 18.1086 17.3882 20.0755 17.3882 20.0755C17.2607 20.3277 17.3618 20.6356 17.6141 20.7631C17.8666 20.8905 18.1746 20.7888 18.3017 20.5362C18.3017 20.5362 19.284 18.5779 19.8338 15.8699C23.3913 14.8873 27.0943 15.8095 29.0146 16.3706C24.8648 17.5355 22.1658 20.252 19.9827 22.1613C18.8498 23.1521 17.8397 23.8932 16.8625 24.1292C15.8853 24.3651 14.8942 24.1753 13.5504 23.1277C12.3582 22.1982 12.0592 21.2043 12.2841 19.7926C12.5091 18.381 13.3527 16.5962 14.5508 14.4777C16.5628 10.9206 16.521 7.41768 16.4398 5.85361L17.4292 6.90804ZM29.4983 6.12248C29.8069 6.24546 30.1253 6.35211 30.4547 6.43931C30.3224 6.99203 30.1514 7.57054 29.94 8.16628C29.5015 8.10887 29.07 8.02161 28.6548 7.89046C28.9553 7.31721 29.2412 6.73186 29.4983 6.12248ZM6.70733 6.49323C6.90702 6.88449 7.09118 7.28106 7.26601 7.68157C6.6922 8.01852 6.08562 8.24454 5.44605 8.37718C5.31059 7.95435 5.1922 7.52497 5.08326 7.09189C5.64853 6.9549 6.19176 6.75829 6.70733 6.49323ZM25.0718 6.83505C25.6822 7.46948 26.4141 7.99347 27.2146 8.39113C26.9206 8.89861 26.6121 9.39783 26.2901 9.89029C25.4048 9.47436 24.6291 8.88869 23.9744 8.14829C24.3253 7.69919 24.6927 7.26238 25.0718 6.83505ZM9.87951 8.1263C9.57322 8.47116 9.24793 8.79066 8.90407 9.07378C8.78783 8.72991 8.6639 8.38905 8.53129 8.05134C8.8692 7.79646 9.19425 7.50688 9.50573 7.18184L9.87951 8.1263ZM4.06984 7.25981C4.17373 7.67825 4.28909 8.09243 4.41664 8.50208C4.03497 8.52224 3.64336 8.51947 3.23832 8.48268C3.15154 8.08182 3.08493 7.68549 3.04043 7.29739C3.39036 7.30509 3.73394 7.29273 4.06984 7.25948V7.25981ZM7.65079 8.62303C7.78542 8.976 7.91057 9.33244 8.02658 9.6924C7.45724 10.0425 6.85894 10.3054 6.2456 10.464C6.08107 10.0937 5.92813 9.71932 5.78586 9.34062C6.43446 9.18978 7.05786 8.95055 7.65079 8.62303ZM28.163 8.79302C28.6174 8.95258 29.0848 9.07213 29.5582 9.15081C29.3598 9.62329 29.137 10.0992 28.8886 10.576C28.3175 10.524 27.7748 10.4216 27.2635 10.2662C27.5749 9.78406 27.8756 9.29407 28.163 8.79302ZM23.3548 8.97387C24.0331 9.69397 24.8295 10.2897 25.7244 10.7339C25.3965 11.2225 25.0386 11.715 24.719 12.155C23.7731 11.7394 22.9964 11.1602 22.3644 10.424C22.7022 9.89488 23.0161 9.43228 23.3548 8.97387ZM10.2373 9.23672C10.3004 9.46004 10.3576 9.68113 10.4092 9.90029C9.41525 11.1824 8.88282 12.6243 8.62124 14.0409C8.44204 13.9386 8.25836 13.8455 8.07355 13.7551C7.55695 12.9914 7.10076 12.2055 6.69434 11.4015C7.2533 11.2363 7.79835 10.9939 8.32341 10.6949C8.34982 10.7928 8.38028 10.8893 8.40536 10.9877C8.47679 11.2607 8.75582 11.4244 9.029 11.3535C9.30122 11.2839 9.4663 11.0076 9.39879 10.7348C9.3448 10.5231 9.2828 10.3138 9.22289 10.1042C9.57768 9.84006 9.9189 9.55308 10.2373 9.23672H10.2373ZM26.6869 11.1376C27.2148 11.3223 27.7696 11.4579 28.3489 11.5404C28.0841 11.9833 27.7988 12.4217 27.4884 12.8516C26.8532 12.7802 26.2603 12.6717 25.7194 12.5148C26.06 12.0535 26.3871 11.577 26.6869 11.1376ZM21.8127 11.3254C22.4545 12.002 23.2192 12.5538 24.1004 12.9755C23.7322 13.4503 23.3491 13.9128 22.954 14.3656C21.9986 14.3852 21.0282 14.4873 20.0837 14.7135C20.6266 13.5173 21.1967 12.3754 21.8127 11.3254ZM25.0798 13.3722C25.6099 13.5525 26.1749 13.6929 26.7748 13.791C26.5583 14.0634 26.3408 14.3251 26.1212 14.5795C25.5298 14.4934 24.9113 14.4279 24.2743 14.3927C24.5507 14.057 24.8177 13.7157 25.0798 13.3723V13.3722Z" fill="url(#paint0_linear_6_40)"/>
    <defs>
    <linearGradient id="paint0_linear_6_40" x1="15.9513" y1="0.862061" x2="15.9513" y2="26.6552" gradientUnits="userSpaceOnUse">
    <stop stop-color="#C39F4B"/>
    <stop offset="1" stop-color="#DEBB69"/>
    </linearGradient>
    </defs>
</svg>
