<svg width="33" height="24" viewBox="0 0 33 24" fill="none" xmlns="http://www.w3.org/2000/svg">
    <path d="M15.7867 14.3197C16.1714 14.3194 16.5549 14.2781 16.9308 14.1965C17.0034 14.1807 17.0699 14.1445 17.1224 14.0919C17.1749 14.0394 17.2112 13.9729 17.2269 13.9003C17.6069 12.1461 17.0961 10.3612 15.8607 9.12581C14.6252 7.89037 12.8401 7.37987 11.0863 7.75962C11.0137 7.77534 10.9471 7.81163 10.8946 7.86415C10.8421 7.91667 10.8058 7.9832 10.7901 8.05578C10.4102 9.80995 10.9209 11.5948 12.1564 12.8302C12.6336 13.3053 13.1999 13.6815 13.8229 13.9371C14.446 14.1928 15.1133 14.3228 15.7867 14.3197Z" fill="url(#paint0_linear_6_27)"/>
    <path d="M17.8262 7.45647C18.2022 7.53816 18.5857 7.57946 18.9704 7.57967C19.6438 7.58274 20.3112 7.45274 20.9342 7.19715C21.5572 6.94156 22.1235 6.5654 22.6007 6.09029C23.8362 4.85476 24.3469 3.06988 23.9669 1.31579C23.9512 1.24323 23.9149 1.17673 23.8624 1.12423C23.8099 1.07173 23.7434 1.03544 23.6708 1.01971C21.9167 0.63979 20.1319 1.15034 18.8963 2.3859C17.6608 3.62147 17.1501 5.40631 17.5301 7.16039C17.5459 7.23295 17.5822 7.29946 17.6347 7.35196C17.6872 7.40446 17.7537 7.44074 17.8262 7.45647Z" fill="url(#paint1_linear_6_27)"/>
    <path d="M32.3011 6.79932H29.7931C27.9458 6.79932 26.2977 8.05916 25.7853 9.86299C25.2024 11.9083 23.9688 13.708 22.2714 14.9893C20.574 16.2706 18.5051 16.9638 16.3784 16.9638C14.2516 16.9638 12.1828 16.2706 10.4853 14.9893C8.7879 13.708 7.55432 11.9083 6.97149 9.86299C6.45906 8.05916 4.81097 6.79932 2.96365 6.79932H0.455688C0.353124 6.79932 0.254761 6.84006 0.182237 6.91258C0.109714 6.98511 0.0689697 7.08347 0.0689697 7.18604C0.0689697 7.2886 0.109714 7.38696 0.182237 7.45949C0.254761 7.53201 0.353124 7.57275 0.455688 7.57275H2.96365C3.70517 7.58016 4.42425 7.82805 5.0128 8.27916C5.60136 8.73027 6.02759 9.36023 6.22744 10.0743C6.85443 12.2566 8.16397 14.1806 9.96412 15.5644C11.8054 16.9736 14.0596 17.7373 16.3784 17.7373C18.6971 17.7373 20.9513 16.9736 22.7926 15.5644C24.5928 14.1806 25.9023 12.2566 26.5293 10.0743C26.7292 9.36023 27.1554 8.73027 27.7439 8.27916C28.3325 7.82805 29.0516 7.58016 29.7931 7.57275H32.3011C32.4036 7.57275 32.502 7.53201 32.5745 7.45949C32.647 7.38696 32.6878 7.2886 32.6878 7.18604C32.6878 7.08347 32.647 6.98511 32.5745 6.91258C32.502 6.84006 32.4036 6.79932 32.3011 6.79932H32.3011Z" fill="url(#paint2_linear_6_27)"/>
    <path d="M24.724 17.7346C24.6197 17.6777 24.5009 17.6529 24.3826 17.6635C24.2643 17.6741 24.1517 17.7195 24.0592 17.7941C23.9667 17.8686 23.8983 17.9689 23.8628 18.0823C23.8273 18.1956 23.8262 18.317 23.8597 18.431C23.8931 18.545 23.9596 18.6465 24.0508 18.7227C24.1419 18.7989 24.2536 18.8464 24.3718 18.8591C24.4899 18.8718 24.6091 18.8492 24.7144 18.7942C24.8197 18.7391 24.9063 18.6541 24.9632 18.5498C25.0011 18.4806 25.0249 18.4046 25.0333 18.3261C25.0418 18.2477 25.0347 18.1684 25.0125 18.0927C24.9902 18.017 24.9533 17.9464 24.9038 17.885C24.8543 17.8235 24.7932 17.7725 24.724 17.7346Z" fill="url(#paint3_linear_6_27)"/>
    <path d="M29.6371 17.7346C29.5328 17.6777 29.414 17.6529 29.2957 17.6635C29.1773 17.6741 29.0648 17.7195 28.9723 17.7941C28.8797 17.8686 28.8114 17.9689 28.7759 18.0823C28.7404 18.1956 28.7393 18.317 28.7727 18.431C28.8062 18.545 28.8727 18.6465 28.9638 18.7227C29.055 18.7989 29.1667 18.8464 29.2848 18.8591C29.4029 18.8718 29.5222 18.8492 29.6275 18.7942C29.7328 18.7391 29.8194 18.6541 29.8763 18.5498C29.9141 18.4806 29.9379 18.4046 29.9464 18.3261C29.9548 18.2477 29.9477 18.1684 29.9255 18.0927C29.9033 18.017 29.8664 17.9464 29.8169 17.885C29.7674 17.8235 29.7063 17.7725 29.6371 17.7346Z" fill="url(#paint4_linear_6_27)"/>
    <path d="M14.2098 22.3745C14.1056 22.3176 13.9867 22.2928 13.8684 22.3034C13.7501 22.314 13.6375 22.3594 13.545 22.434C13.4525 22.5085 13.3842 22.6088 13.3486 22.7222C13.3131 22.8355 13.312 22.9569 13.3455 23.0709C13.3789 23.1849 13.4454 23.2864 13.5366 23.3626C13.6277 23.4388 13.7394 23.4863 13.8576 23.499C13.9757 23.5117 14.0949 23.4891 14.2002 23.4341C14.3055 23.379 14.3921 23.294 14.4491 23.1897C14.4869 23.1205 14.5107 23.0445 14.5191 22.966C14.5276 22.8876 14.5205 22.8083 14.4983 22.7326C14.4761 22.6569 14.4392 22.5863 14.3897 22.5249C14.3402 22.4634 14.2791 22.4124 14.2098 22.3745Z" fill="url(#paint5_linear_6_27)"/>
    <path d="M19.1228 22.3745C19.0186 22.3176 18.8998 22.2928 18.7814 22.3034C18.6631 22.314 18.5505 22.3594 18.458 22.434C18.3655 22.5085 18.2972 22.6088 18.2617 22.7222C18.2261 22.8355 18.225 22.9569 18.2585 23.0709C18.292 23.1849 18.3585 23.2864 18.4496 23.3626C18.5408 23.4388 18.6525 23.4863 18.7706 23.499C18.8887 23.5117 19.008 23.4891 19.1132 23.4341C19.2185 23.379 19.3051 23.294 19.3621 23.1897C19.3999 23.1205 19.4237 23.0445 19.4321 22.966C19.4406 22.8876 19.4335 22.8083 19.4113 22.7326C19.3891 22.6569 19.3522 22.5863 19.3027 22.5249C19.2532 22.4634 19.1921 22.4124 19.1228 22.3745Z" fill="url(#paint6_linear_6_27)"/>
    <path d="M29.6371 12.4029C29.5328 12.3459 29.414 12.3212 29.2957 12.3317C29.1773 12.3423 29.0648 12.3877 28.9723 12.4623C28.8797 12.5368 28.8114 12.6371 28.7759 12.7505C28.7404 12.8638 28.7393 12.9852 28.7727 13.0992C28.8062 13.2132 28.8727 13.3147 28.9638 13.3909C29.055 13.4671 29.1667 13.5146 29.2848 13.5273C29.4029 13.54 29.5222 13.5174 29.6275 13.4624C29.7327 13.4073 29.8193 13.3223 29.8763 13.218C29.9141 13.1488 29.9379 13.0728 29.9464 12.9944C29.9548 12.9159 29.9477 12.8366 29.9255 12.7609C29.9033 12.6852 29.8664 12.6146 29.8169 12.5532C29.7674 12.4918 29.7063 12.4407 29.6371 12.4029Z" fill="url(#paint7_linear_6_27)"/>
    <path d="M8.03273 17.7347C7.92846 17.7916 7.84343 17.8782 7.78838 17.9835C7.73333 18.0888 7.71073 18.208 7.72345 18.3261C7.73617 18.4443 7.78363 18.556 7.85984 18.6471C7.93604 18.7383 8.03756 18.8048 8.15156 18.8382C8.26556 18.8717 8.38691 18.8706 8.50029 18.8351C8.61366 18.7995 8.71396 18.7312 8.78849 18.6387C8.86303 18.5462 8.90846 18.4336 8.91903 18.3153C8.92961 18.197 8.90485 18.0781 8.8479 17.9739C8.81009 17.9046 8.759 17.8435 8.69757 17.7941C8.63614 17.7446 8.56556 17.7077 8.48986 17.6854C8.41417 17.6632 8.33483 17.6561 8.2564 17.6646C8.17796 17.673 8.10196 17.6968 8.03273 17.7347Z" fill="url(#paint8_linear_6_27)"/>
    <path d="M3.11967 17.7347C3.01541 17.7916 2.93037 17.8782 2.87532 17.9835C2.82027 18.0888 2.79768 18.208 2.8104 18.3261C2.82312 18.4443 2.87058 18.556 2.94678 18.6471C3.02298 18.7383 3.1245 18.8048 3.2385 18.8382C3.3525 18.8717 3.47385 18.8706 3.58723 18.8351C3.7006 18.7995 3.8009 18.7312 3.87543 18.6387C3.94997 18.5462 3.99539 18.4336 4.00597 18.3153C4.01654 18.197 3.99179 18.0781 3.93484 17.9739C3.89702 17.9046 3.84594 17.8435 3.78451 17.7941C3.72308 17.7446 3.6525 17.7077 3.5768 17.6854C3.50111 17.6632 3.42178 17.6561 3.34334 17.6646C3.26491 17.673 3.1889 17.6968 3.11967 17.7347Z" fill="url(#paint9_linear_6_27)"/>
    <path d="M3.11967 12.4029C3.01541 12.4598 2.93037 12.5464 2.87532 12.6517C2.82027 12.757 2.79768 12.8762 2.8104 12.9944C2.82312 13.1125 2.87058 13.2242 2.94678 13.3153C3.02298 13.4065 3.1245 13.473 3.2385 13.5064C3.3525 13.5399 3.47385 13.5388 3.58723 13.5033C3.7006 13.4678 3.8009 13.3994 3.87543 13.3069C3.94997 13.2144 3.99539 13.1018 4.00597 12.9835C4.01654 12.8652 3.99179 12.7464 3.93484 12.6421C3.89702 12.5729 3.84594 12.5118 3.78451 12.4623C3.72308 12.4128 3.6525 12.3759 3.5768 12.3537C3.50111 12.3314 3.42178 12.3244 3.34334 12.3328C3.26491 12.3412 3.1889 12.3651 3.11967 12.4029Z" fill="url(#paint10_linear_6_27)"/>
    <defs>
    <linearGradient id="paint0_linear_6_27" x1="14.0085" y1="7.63647" x2="14.0085" y2="14.3197" gradientUnits="userSpaceOnUse">
    <stop stop-color="#C39F4B"/>
    <stop offset="1" stop-color="#DEBB69"/>
    </linearGradient>
    <linearGradient id="paint1_linear_6_27" x1="20.7485" y1="0.896484" x2="20.7485" y2="7.57972" gradientUnits="userSpaceOnUse">
    <stop stop-color="#C39F4B"/>
    <stop offset="1" stop-color="#DEBB69"/>
    </linearGradient>
    <linearGradient id="paint2_linear_6_27" x1="16.3784" y1="6.79932" x2="16.3784" y2="17.7373" gradientUnits="userSpaceOnUse">
    <stop stop-color="#C39F4B"/>
    <stop offset="1" stop-color="#DEBB69"/>
    </linearGradient>
    <linearGradient id="paint3_linear_6_27" x1="24.4361" y1="17.6611" x2="24.4361" y2="18.8626" gradientUnits="userSpaceOnUse">
    <stop stop-color="#C39F4B"/>
    <stop offset="1" stop-color="#DEBB69"/>
    </linearGradient>
    <linearGradient id="paint4_linear_6_27" x1="29.3491" y1="17.6611" x2="29.3491" y2="18.8626" gradientUnits="userSpaceOnUse">
    <stop stop-color="#C39F4B"/>
    <stop offset="1" stop-color="#DEBB69"/>
    </linearGradient>
    <linearGradient id="paint5_linear_6_27" x1="13.9219" y1="22.301" x2="13.9219" y2="23.5024" gradientUnits="userSpaceOnUse">
    <stop stop-color="#C39F4B"/>
    <stop offset="1" stop-color="#DEBB69"/>
    </linearGradient>
    <linearGradient id="paint6_linear_6_27" x1="18.8349" y1="22.301" x2="18.8349" y2="23.5024" gradientUnits="userSpaceOnUse">
    <stop stop-color="#C39F4B"/>
    <stop offset="1" stop-color="#DEBB69"/>
    </linearGradient>
    <linearGradient id="paint7_linear_6_27" x1="29.3491" y1="12.3293" x2="29.3491" y2="13.5307" gradientUnits="userSpaceOnUse">
    <stop stop-color="#C39F4B"/>
    <stop offset="1" stop-color="#DEBB69"/>
    </linearGradient>
    <linearGradient id="paint8_linear_6_27" x1="8.32071" y1="17.6611" x2="8.32071" y2="18.8625" gradientUnits="userSpaceOnUse">
    <stop stop-color="#C39F4B"/>
    <stop offset="1" stop-color="#DEBB69"/>
    </linearGradient>
    <linearGradient id="paint9_linear_6_27" x1="3.40765" y1="17.6611" x2="3.40765" y2="18.8625" gradientUnits="userSpaceOnUse">
    <stop stop-color="#C39F4B"/>
    <stop offset="1" stop-color="#DEBB69"/>
    </linearGradient>
    <linearGradient id="paint10_linear_6_27" x1="3.40765" y1="12.3293" x2="3.40765" y2="13.5307" gradientUnits="userSpaceOnUse">
    <stop stop-color="#C39F4B"/>
    <stop offset="1" stop-color="#DEBB69"/>
    </linearGradient>
    </defs>
</svg>
