<svg width="36" height="25" viewBox="0 0 36 25" fill="none" xmlns="http://www.w3.org/2000/svg">
    <path d="M35.5848 8.35501L31.9524 1.39864C31.7357 0.988235 31.3674 0.678622 30.9259 0.535735C30.4844 0.392848 30.0045 0.427977 29.5885 0.63364L26.0251 2.41527H23.338L18.348 0.157418C17.9625 -0.0167278 17.5275 -0.0474966 17.1213 0.0706547L9.70979 2.23135L6.1976 0.475331C5.78158 0.269742 5.30175 0.234644 4.86025 0.37751C4.41874 0.520377 4.05044 0.829923 3.83373 1.24026L0.201233 8.19678C0.0923084 8.40543 0.0260288 8.63369 0.006262 8.86823C-0.0135048 9.10277 0.0136372 9.3389 0.0861041 9.56284C0.158571 9.78678 0.274912 9.99405 0.428338 10.1725C0.581764 10.351 0.769202 10.4972 0.979717 10.6025L4.57781 12.4015L12.6048 18.6782C12.8001 18.8315 13.0257 18.9417 13.2667 19.0016L21.8273 21.1417C21.9666 21.1764 22.1096 21.194 22.2531 21.1939C22.7243 21.1941 23.1763 21.0077 23.5105 20.6755L28.9456 15.2404C28.9565 15.2295 28.9669 15.2181 28.977 15.2065L31.2626 12.5327L34.8064 10.7608C35.0169 10.6555 35.2043 10.5093 35.3577 10.3308C35.5112 10.1523 35.6275 9.94506 35.7 9.72112C35.7724 9.49717 35.7996 9.26104 35.7798 9.02649C35.76 8.79194 35.6938 8.56368 35.5848 8.35502L35.5848 8.35501ZM28.4337 14.0235L22.3763 9.61816C22.2741 9.54385 22.1508 9.50426 22.0244 9.50518C21.8981 9.5061 21.7754 9.54749 21.6743 9.62328L19.7836 11.0413C19.0664 11.5749 18.1962 11.8631 17.3022 11.8631C16.4082 11.8631 15.538 11.5749 14.8208 11.0413L14.0201 10.4408C13.9524 10.39 13.8964 10.3253 13.8559 10.2509C13.8153 10.1766 13.7913 10.0945 13.7853 10.0101C13.7793 9.92563 13.7915 9.8409 13.8211 9.7616C13.8506 9.6823 13.8969 9.61029 13.9568 9.55044L19.7372 3.77001C19.8482 3.65959 19.9983 3.59739 20.1549 3.59691H23.2088L23.2102 3.59706L23.2122 3.59691H25.8065L30.1826 11.9774L28.4337 14.0235ZM1.21036 9.19906C1.18595 9.12445 1.17676 9.0457 1.18335 8.96748C1.18994 8.88925 1.21218 8.81315 1.24873 8.74368L4.88123 1.78716C4.9317 1.69142 5.00739 1.61131 5.10011 1.55549C5.19284 1.49967 5.29906 1.47027 5.40728 1.47048C5.49817 1.47039 5.58782 1.49153 5.66909 1.53222L8.81952 3.10736L4.63991 11.1114L1.50823 9.5456C1.43791 9.51072 1.37531 9.46207 1.32414 9.40255C1.27297 9.34302 1.23428 9.27382 1.21036 9.19906ZM22.675 19.8399C22.6027 19.9119 22.5131 19.964 22.4148 19.9912C22.3165 20.0184 22.2128 20.0198 22.1138 19.9953L13.5532 17.8551C13.4729 17.8352 13.3977 17.7985 13.3326 17.7474L5.6463 11.7371L10.0134 3.37368L17.4519 1.20514C17.5873 1.16565 17.7324 1.17588 17.8609 1.23398L20.4715 2.41527H20.1549C19.9221 2.41464 19.6914 2.46019 19.4763 2.5493C19.2612 2.63841 19.0659 2.7693 18.9017 2.9344L13.1213 8.71483C12.9417 8.89438 12.8028 9.11043 12.714 9.34834C12.6252 9.58625 12.5885 9.84047 12.6065 10.0938C12.6245 10.3471 12.6967 10.5936 12.8182 10.8166C12.9398 11.0395 13.1078 11.2338 13.311 11.3862L14.1117 11.9866C15.0339 12.6727 16.1528 13.0433 17.3022 13.0433C18.4517 13.0433 19.5705 12.6727 20.4927 11.9866L22.0341 10.8305L27.6212 14.8937L22.675 19.8399ZM34.5757 9.35736C34.5518 9.43212 34.5131 9.50132 34.4619 9.56085C34.4108 9.62038 34.3482 9.66903 34.2779 9.70391L31.1462 11.2697L26.9666 3.26566L30.117 1.69051C30.2556 1.62192 30.4156 1.61019 30.5628 1.65783C30.71 1.70547 30.8327 1.8087 30.9049 1.94554L34.5373 8.90191C34.5739 8.9714 34.5961 9.04751 34.6027 9.12575C34.6093 9.20398 34.6001 9.28275 34.5757 9.35736V9.35736ZM16.103 23.8281C16.0842 23.9034 16.0508 23.9743 16.0046 24.0367C15.9585 24.0991 15.9005 24.1518 15.8339 24.1917C15.7674 24.2316 15.6936 24.2581 15.6168 24.2695C15.5401 24.2809 15.4618 24.277 15.3865 24.2581L10.9347 23.1453C10.6638 23.0772 10.4127 22.9463 10.2017 22.7633L6.87064 19.8678C6.81187 19.8169 6.7637 19.755 6.7289 19.6855C6.6941 19.6161 6.67335 19.5404 6.66783 19.4629C6.66231 19.3854 6.67214 19.3075 6.69675 19.2338C6.72136 19.1601 6.76027 19.092 6.81125 19.0334C6.86223 18.9747 6.92428 18.9267 6.99384 18.8921C7.0634 18.8574 7.13911 18.8369 7.21664 18.8316C7.29416 18.8262 7.37197 18.8363 7.44561 18.8611C7.51926 18.8858 7.58729 18.9249 7.6458 18.9761L10.977 21.8716C11.0474 21.9326 11.1312 21.9762 11.2216 21.999L15.673 23.1117C15.825 23.1497 15.9557 23.2465 16.0363 23.3809C16.117 23.5152 16.1409 23.6761 16.103 23.8281Z" fill="url(#paint0_linear_6_82)"/>
    <defs>
    <linearGradient id="paint0_linear_6_82" x1="17.893" y1="0" x2="17.893" y2="24.2759" gradientUnits="userSpaceOnUse">
    <stop stop-color="#C39F4B"/>
    <stop offset="1" stop-color="#DEBB69"/>
    </linearGradient>
    </defs>
</svg>
