<svg width="20" height="26" viewBox="0 0 20 26" fill="none" xmlns="http://www.w3.org/2000/svg">
    <path d="M19.5618 13.7924C16.7697 12.0016 13.5365 11.0181 10.2202 10.9509V7.67624C12.0323 7.64242 13.7588 6.8994 15.0292 5.60673C16.2995 4.31405 17.0124 2.57479 17.0146 0.762394V0.498291C17.0146 0.464103 17.001 0.431315 16.9769 0.40714C16.9527 0.382966 16.9199 0.369385 16.8857 0.369385H16.6215C15.0392 0.371524 13.5054 0.915183 12.275 1.90997C11.0446 2.90475 10.1918 4.29071 9.85841 5.83741C9.84998 5.83686 9.84197 5.83489 9.83342 5.83489C9.82487 5.83489 9.81685 5.83686 9.80844 5.83741C9.475 4.29071 8.62219 2.90475 7.3918 1.90997C6.16142 0.915193 4.62759 0.371531 3.04537 0.369385H2.78124C2.74705 0.369385 2.71427 0.382966 2.69009 0.40714C2.66592 0.431315 2.65233 0.464103 2.65233 0.498291V0.762394C2.65459 2.57478 3.36741 4.31403 4.63775 5.60671C5.90809 6.89938 7.63465 7.6424 9.44672 7.67624V10.9506C6.26695 11.0163 3.16148 11.9241 0.446922 13.5813C0.359131 13.6344 0.296003 13.7201 0.271428 13.8197C0.246853 13.9193 0.262843 14.0245 0.31588 14.1123C0.368917 14.2001 0.454657 14.2632 0.554238 14.2878C0.653819 14.3124 0.759083 14.2964 0.846874 14.2434C3.4274 12.667 6.3777 11.7984 9.40071 11.7249L6.81104 15.7302C6.73448 15.8476 6.65178 15.9609 6.56328 16.0697C6.54159 16.0882 6.52202 16.109 6.50493 16.1319L6.46158 16.1906C6.09258 16.6127 5.63741 16.9508 5.12671 17.1821C4.61602 17.4135 4.06168 17.5327 3.50104 17.5317H1.87751C1.77494 17.5317 1.67658 17.5725 1.60405 17.645C1.53153 17.7175 1.49079 17.8159 1.49079 17.9184C1.49079 18.021 1.53153 18.1194 1.60405 18.1919C1.67658 18.2644 1.77494 18.3052 1.87751 18.3052H3.50104C4.04944 18.3049 4.59362 18.2092 5.10917 18.0223L3.21431 20.5886C3.18363 20.6294 3.16134 20.6759 3.14872 20.7254C3.13611 20.7749 3.13341 20.8264 3.1408 20.8769C3.14818 20.9274 3.1655 20.976 3.19175 21.0198C3.218 21.0636 3.25266 21.1018 3.29374 21.1321C3.33482 21.1624 3.3815 21.1843 3.43108 21.1965C3.48067 21.2087 3.53218 21.211 3.58264 21.2031C3.6331 21.1953 3.68151 21.1776 3.72508 21.151C3.76865 21.1243 3.80652 21.0894 3.8365 21.048L7.06363 16.6772C7.20796 16.5109 7.34058 16.3348 7.46053 16.1501L9.44674 13.0782V19.8204C9.44674 19.8276 9.44846 19.8343 9.44884 19.8413C9.44007 21.9217 8.12398 23.8462 6.00928 24.8674L5.95116 24.8954C5.90478 24.9171 5.86316 24.9478 5.82871 24.9856C5.79427 25.0235 5.76768 25.0678 5.7505 25.1161C5.73333 25.1643 5.72589 25.2154 5.72864 25.2666C5.73138 25.3177 5.74425 25.3677 5.76649 25.4139C5.78873 25.46 5.81991 25.5012 5.85821 25.5352C5.89651 25.5691 5.94117 25.5952 5.98961 25.6117C6.03805 25.6283 6.08929 25.6351 6.14037 25.6317C6.19145 25.6283 6.24135 25.6148 6.28718 25.592L6.34543 25.564C8.01924 24.7557 9.2484 23.4348 9.83597 21.8963C10.4236 23.4348 11.6527 24.7557 13.3266 25.564L13.3847 25.592C13.4304 25.6141 13.48 25.6269 13.5307 25.6298C13.5814 25.6327 13.6322 25.6256 13.6802 25.6089C13.7281 25.5921 13.7723 25.5661 13.8102 25.5323C13.8481 25.4985 13.879 25.4576 13.901 25.4118C13.9231 25.3661 13.936 25.3165 13.9389 25.2657C13.9417 25.215 13.9346 25.1643 13.9179 25.1163C13.9012 25.0684 13.8751 25.0242 13.8413 24.9863C13.8075 24.9484 13.7666 24.9175 13.7209 24.8954L13.6629 24.8674C11.5409 23.8428 10.2227 21.909 10.2227 19.8204C10.2227 19.8119 10.2207 19.8039 10.2202 19.7955V13.1178L12.1808 16.1502C12.2802 16.3031 12.3882 16.4503 12.5045 16.5909L12.5047 16.5913L15.7954 21.048C15.8253 21.0893 15.8632 21.1243 15.9068 21.1509C15.9504 21.1776 15.9988 21.1953 16.0492 21.2031C16.0997 21.2109 16.1512 21.2087 16.2008 21.1965C16.2504 21.1843 16.297 21.1624 16.3381 21.132C16.3792 21.1017 16.4139 21.0635 16.4401 21.0197C16.4664 20.976 16.4837 20.9274 16.4911 20.8769C16.4984 20.8263 16.4958 20.7748 16.4831 20.7254C16.4705 20.6759 16.4482 20.6294 16.4175 20.5886L14.5193 18.0176C15.0386 18.2076 15.5873 18.3049 16.1403 18.3051H17.7638C17.8664 18.3051 17.9648 18.2644 18.0373 18.1918C18.1098 18.1193 18.1506 18.021 18.1506 17.9184C18.1506 17.8158 18.1098 17.7175 18.0373 17.6449C17.9648 17.5724 17.8664 17.5317 17.7638 17.5317H16.1404C15.4818 17.533 14.8335 17.3688 14.2551 17.054C13.6767 16.7392 13.1868 16.2839 12.8304 15.7302L10.2403 11.7245C13.4016 11.7954 16.4822 12.736 19.1438 14.4432C19.1865 14.4712 19.2344 14.4905 19.2846 14.5C19.3349 14.5094 19.3865 14.5088 19.4365 14.4982C19.4865 14.4876 19.5339 14.4672 19.576 14.4381C19.618 14.409 19.6539 14.3719 19.6815 14.3289C19.7092 14.2859 19.728 14.2378 19.7369 14.1875C19.7458 14.1372 19.7447 14.0856 19.7336 14.0357C19.7224 13.9858 19.7015 13.9386 19.672 13.8968C19.6425 13.8551 19.6051 13.8196 19.5618 13.7924ZM9.74786 7.40224C9.68603 7.40234 9.62508 7.38759 9.57014 7.35925C9.51519 7.3309 9.46785 7.28978 9.4321 7.23935C9.42227 7.2255 8.43714 5.84739 7.2487 4.98864C7.20754 4.9589 7.17263 4.92134 7.14599 4.8781C7.11934 4.83487 7.10147 4.78681 7.0934 4.73667C7.08532 4.68653 7.0872 4.63529 7.09893 4.58587C7.11066 4.53646 7.13201 4.48984 7.16175 4.44868C7.1915 4.40751 7.22906 4.37261 7.27229 4.34596C7.31553 4.31932 7.36359 4.30145 7.41373 4.29337C7.46387 4.2853 7.51511 4.28718 7.56452 4.29891C7.61394 4.31064 7.66056 4.33198 7.70172 4.36173C8.65194 5.04837 9.45585 6.00326 9.83346 6.48684C10.2111 6.00326 11.015 5.04835 11.9652 4.36173C12.0064 4.33198 12.053 4.31064 12.1024 4.29891C12.1518 4.28718 12.203 4.2853 12.2532 4.29337C12.3033 4.30145 12.3514 4.31932 12.3946 4.34596C12.4378 4.37261 12.4754 4.40751 12.5052 4.44868C12.5349 4.48984 12.5562 4.53646 12.568 4.58587C12.5797 4.63529 12.5816 4.68653 12.5735 4.73667C12.5654 4.78681 12.5476 4.83487 12.5209 4.8781C12.4943 4.92134 12.4594 4.9589 12.4182 4.98864C11.2298 5.84743 10.2446 7.22554 10.2348 7.23935C10.199 7.28979 10.1517 7.33091 10.0968 7.35926C10.0418 7.3876 9.98088 7.40234 9.91906 7.40224H9.74786Z" fill="url(#paint0_linear_6_122)"/>
    <defs>
    <linearGradient id="paint0_linear_6_122" x1="10.0015" y1="0.369385" x2="10.0015" y2="25.6326" gradientUnits="userSpaceOnUse">
    <stop stop-color="#C39F4B"/>
    <stop offset="1" stop-color="#DEBB69"/>
    </linearGradient>
    </defs>
</svg>
