<svg viewBox="0 0 30 26" fill="none" xmlns="http://www.w3.org/2000/svg">
    <path d="M3.00432 25.1359V18.7927H26.8024V25.1359H3.01206" stroke="url(#paint0_linear_6_87)" stroke-miterlimit="10" stroke-linecap="round" stroke-linejoin="round"/>
    <path d="M26.8139 17.3398H29.2397V25.1378H26.8139V17.3398Z" stroke="url(#paint1_linear_6_87)" stroke-miterlimit="10" stroke-linecap="round" stroke-linejoin="round"/>
    <path d="M3.01205 25.1359H0.586212V17.3398H3.01205V18.7927V25.1359Z" stroke="url(#paint2_linear_6_87)" stroke-miterlimit="10" stroke-linecap="round" stroke-linejoin="round"/>
    <path d="M3.08557 20.9401H26.7229" stroke="url(#paint3_linear_6_87)" stroke-miterlimit="10" stroke-linecap="round" stroke-linejoin="round"/>
    <path d="M3.08557 22.9229H26.7229" stroke="url(#paint4_linear_6_87)" stroke-miterlimit="10" stroke-linecap="round" stroke-linejoin="round"/>
    <path d="M24.2604 18.7348V8.20154" stroke="url(#paint5_linear_6_87)" stroke-miterlimit="10" stroke-linecap="round" stroke-linejoin="round"/>
    <path d="M24.0863 16.7326C23.1577 16.7326 22.4033 15.98 22.4033 15.0496" stroke="url(#paint6_linear_6_87)" stroke-miterlimit="10" stroke-linecap="round" stroke-linejoin="round"/>
    <path d="M26.0884 13.3375C26.0884 14.2661 25.336 15.0206 24.4055 15.0206" stroke="url(#paint7_linear_6_87)" stroke-miterlimit="10" stroke-linecap="round" stroke-linejoin="round"/>
    <path d="M26.0884 8.81079C26.0884 9.73934 25.336 10.4938 24.4055 10.4938" stroke="url(#paint8_linear_6_87)" stroke-miterlimit="10" stroke-linecap="round" stroke-linejoin="round"/>
    <path d="M24.0863 12.9604C23.1577 12.9604 22.4033 12.2059 22.4033 11.2773" stroke="url(#paint9_linear_6_87)" stroke-miterlimit="10" stroke-linecap="round" stroke-linejoin="round"/>
    <path d="M10.897 18.7928C10.897 18.7928 9.53318 18.0093 10.2296 15.6299C10.2296 15.6299 11.2626 16.2102 11.9648 17.2104C12.2686 17.6437 12.5104 18.1563 12.58 18.7347" stroke="url(#paint10_linear_6_87)" stroke-miterlimit="10" stroke-linecap="round" stroke-linejoin="round"/>
    <path d="M12.963 18.7928C12.963 18.7928 14.3268 18.0093 13.6304 15.6299C13.6304 15.6299 12.638 16.4114 11.9648 17.2104" stroke="url(#paint11_linear_6_87)" stroke-miterlimit="10" stroke-linecap="round" stroke-linejoin="round"/>
    <path d="M16.8455 18.7928C16.8455 18.7928 15.4817 18.0093 16.1781 15.6299C16.1781 15.6299 17.1454 16.1735 17.8437 17.1175C18.1784 17.5702 18.4531 18.1138 18.5266 18.7347" stroke="url(#paint12_linear_6_87)" stroke-miterlimit="10" stroke-linecap="round" stroke-linejoin="round"/>
    <path d="M18.9115 18.7928C18.9115 18.7928 20.2754 18.0093 19.5789 15.6299C19.5789 15.6299 18.5188 16.3166 17.8456 17.1175" stroke="url(#paint13_linear_6_87)" stroke-miterlimit="10" stroke-linecap="round" stroke-linejoin="round"/>
    <path d="M6.50186 18.6766V2.31091" stroke="url(#paint14_linear_6_87)" stroke-miterlimit="10" stroke-linecap="round" stroke-linejoin="round"/>
    <path d="M4.61766 8.60768C4.61766 7.6772 5.37211 6.92468 6.30066 6.92468" stroke="url(#paint15_linear_6_87)" stroke-miterlimit="10" stroke-linecap="round" stroke-linejoin="round"/>
    <path d="M3.68912 9.53627C3.68912 9.10295 4.03926 8.75281 4.47258 8.75281C4.90591 8.75281 5.25605 9.10295 5.25605 9.53627C5.25605 9.9696 4.90591 10.3197 4.47258 10.3197C4.03926 10.3197 3.68912 9.9696 3.68912 9.53627Z" stroke="url(#paint16_linear_6_87)" stroke-miterlimit="10" stroke-linecap="round" stroke-linejoin="round"/>
    <path d="M2.38335 10.4938C2.38335 10.0605 2.73349 9.71033 3.16681 9.71033C3.60013 9.71033 3.95028 10.0605 3.95028 10.4938C3.95028 10.9271 3.60013 11.2773 3.16681 11.2773C2.73349 11.2773 2.38335 10.9271 2.38335 10.4938Z" stroke="url(#paint17_linear_6_87)" stroke-miterlimit="10" stroke-linecap="round" stroke-linejoin="round"/>
    <path d="M4.61766 4.11002C4.61766 3.17952 5.37211 2.427 6.30066 2.427" stroke="url(#paint18_linear_6_87)" stroke-miterlimit="10" stroke-linecap="round" stroke-linejoin="round"/>
    <path d="M3.68912 5.03858C3.68912 4.60526 4.03926 4.25513 4.47258 4.25513C4.90591 4.25513 5.25605 4.60526 5.25605 5.03858C5.25605 5.4719 4.90591 5.82204 4.47258 5.82204C4.03926 5.82204 3.68912 5.4719 3.68912 5.03858Z" stroke="url(#paint19_linear_6_87)" stroke-miterlimit="10" stroke-linecap="round" stroke-linejoin="round"/>
    <path d="M4.61766 13.0764C4.61766 12.1459 5.37211 11.3934 6.30066 11.3934" stroke="url(#paint20_linear_6_87)" stroke-miterlimit="10" stroke-linecap="round" stroke-linejoin="round"/>
    <path d="M3.68912 14.0049C3.68912 13.5716 4.03926 13.2214 4.47258 13.2214C4.90591 13.2214 5.25605 13.5716 5.25605 14.0049C5.25605 14.4382 4.90591 14.7883 4.47258 14.7883C4.03926 14.7883 3.68912 14.4382 3.68912 14.0049Z" stroke="url(#paint21_linear_6_87)" stroke-miterlimit="10" stroke-linecap="round" stroke-linejoin="round"/>
    <path d="M8.47502 5.47377C8.47502 4.54522 7.72057 3.79077 6.79202 3.79077" stroke="url(#paint22_linear_6_87)" stroke-miterlimit="10" stroke-linecap="round" stroke-linejoin="round"/>
    <path d="M9.40357 6.40236C9.40357 5.96904 9.05343 5.6189 8.6201 5.6189C8.18678 5.6189 7.83664 5.96904 7.83664 6.40236C7.83664 6.83568 8.18678 7.18582 8.6201 7.18582C9.05343 7.18582 9.40357 6.83568 9.40357 6.40236Z" stroke="url(#paint23_linear_6_87)" stroke-miterlimit="10" stroke-linecap="round" stroke-linejoin="round"/>
    <path d="M9.92589 8.14347C10.3586 8.14347 10.7094 7.7927 10.7094 7.36C10.7094 6.92731 10.3586 6.57654 9.92589 6.57654C9.49319 6.57654 9.14243 6.92731 9.14243 7.36C9.14243 7.7927 9.49319 8.14347 9.92589 8.14347Z" stroke="url(#paint24_linear_6_87)" stroke-miterlimit="10" stroke-linecap="round" stroke-linejoin="round"/>
    <path d="M8.47502 10.755C8.47502 9.82647 7.72057 9.07202 6.79202 9.07202" stroke="url(#paint25_linear_6_87)" stroke-miterlimit="10" stroke-linecap="round" stroke-linejoin="round"/>
    <path d="M9.40357 11.6835C9.40357 11.2502 9.05343 10.9 8.6201 10.9C8.18678 10.9 7.83664 11.2502 7.83664 11.6835C7.83664 12.1168 8.18678 12.467 8.6201 12.467C9.05343 12.467 9.40357 12.1168 9.40357 11.6835Z" stroke="url(#paint26_linear_6_87)" stroke-miterlimit="10" stroke-linecap="round" stroke-linejoin="round"/>
    <path d="M5.64294 0.862061C5.64294 0.862061 6.48444 1.06518 6.48444 2.16783" stroke="url(#paint27_linear_6_87)" stroke-miterlimit="10" stroke-linecap="round" stroke-linejoin="round"/>
    <path d="M7.32401 0.862061C7.32401 0.862061 6.48251 1.06518 6.48251 2.16783" stroke="url(#paint28_linear_6_87)" stroke-miterlimit="10" stroke-linecap="round" stroke-linejoin="round"/>
    <path d="M23.4189 6.77966C23.4189 6.77966 24.2566 6.98278 24.2604 8.0777V8.08544" stroke="url(#paint29_linear_6_87)" stroke-miterlimit="10" stroke-linecap="round" stroke-linejoin="round"/>
    <path d="M25.1019 6.77966C25.1019 6.77966 24.2643 6.98278 24.2604 8.0777V8.08544" stroke="url(#paint30_linear_6_87)" stroke-miterlimit="10" stroke-linecap="round" stroke-linejoin="round"/>
    <defs>
    <linearGradient id="paint0_linear_6_87" x1="14.9033" y1="18.7927" x2="14.9033" y2="25.1359" gradientUnits="userSpaceOnUse">
    <stop stop-color="#C39F4B"/>
    <stop offset="1" stop-color="#DEBB69"/>
    </linearGradient>
    <linearGradient id="paint1_linear_6_87" x1="28.0268" y1="17.3398" x2="28.0268" y2="25.1378" gradientUnits="userSpaceOnUse">
    <stop stop-color="#C39F4B"/>
    <stop offset="1" stop-color="#DEBB69"/>
    </linearGradient>
    <linearGradient id="paint2_linear_6_87" x1="1.79913" y1="17.3398" x2="1.79913" y2="25.1359" gradientUnits="userSpaceOnUse">
    <stop stop-color="#C39F4B"/>
    <stop offset="1" stop-color="#DEBB69"/>
    </linearGradient>
    <linearGradient id="paint3_linear_6_87" x1="14.9042" y1="20.9401" x2="14.9042" y2="21.9401" gradientUnits="userSpaceOnUse">
    <stop stop-color="#C39F4B"/>
    <stop offset="1" stop-color="#DEBB69"/>
    </linearGradient>
    <linearGradient id="paint4_linear_6_87" x1="14.9042" y1="22.9229" x2="14.9042" y2="23.9229" gradientUnits="userSpaceOnUse">
    <stop stop-color="#C39F4B"/>
    <stop offset="1" stop-color="#DEBB69"/>
    </linearGradient>
    <linearGradient id="paint5_linear_6_87" x1="24.7604" y1="8.20154" x2="24.7604" y2="18.7348" gradientUnits="userSpaceOnUse">
    <stop stop-color="#C39F4B"/>
    <stop offset="1" stop-color="#DEBB69"/>
    </linearGradient>
    <linearGradient id="paint6_linear_6_87" x1="23.2448" y1="15.0496" x2="23.2448" y2="16.7326" gradientUnits="userSpaceOnUse">
    <stop stop-color="#C39F4B"/>
    <stop offset="1" stop-color="#DEBB69"/>
    </linearGradient>
    <linearGradient id="paint7_linear_6_87" x1="25.247" y1="13.3375" x2="25.247" y2="15.0206" gradientUnits="userSpaceOnUse">
    <stop stop-color="#C39F4B"/>
    <stop offset="1" stop-color="#DEBB69"/>
    </linearGradient>
    <linearGradient id="paint8_linear_6_87" x1="25.247" y1="8.81079" x2="25.247" y2="10.4938" gradientUnits="userSpaceOnUse">
    <stop stop-color="#C39F4B"/>
    <stop offset="1" stop-color="#DEBB69"/>
    </linearGradient>
    <linearGradient id="paint9_linear_6_87" x1="23.2448" y1="11.2773" x2="23.2448" y2="12.9604" gradientUnits="userSpaceOnUse">
    <stop stop-color="#C39F4B"/>
    <stop offset="1" stop-color="#DEBB69"/>
    </linearGradient>
    <linearGradient id="paint10_linear_6_87" x1="11.3058" y1="15.6299" x2="11.3058" y2="18.7928" gradientUnits="userSpaceOnUse">
    <stop stop-color="#C39F4B"/>
    <stop offset="1" stop-color="#DEBB69"/>
    </linearGradient>
    <linearGradient id="paint11_linear_6_87" x1="12.8966" y1="15.6299" x2="12.8966" y2="18.7928" gradientUnits="userSpaceOnUse">
    <stop stop-color="#C39F4B"/>
    <stop offset="1" stop-color="#DEBB69"/>
    </linearGradient>
    <linearGradient id="paint12_linear_6_87" x1="17.2533" y1="15.6299" x2="17.2533" y2="18.7928" gradientUnits="userSpaceOnUse">
    <stop stop-color="#C39F4B"/>
    <stop offset="1" stop-color="#DEBB69"/>
    </linearGradient>
    <linearGradient id="paint13_linear_6_87" x1="18.8113" y1="15.6299" x2="18.8113" y2="18.7928" gradientUnits="userSpaceOnUse">
    <stop stop-color="#C39F4B"/>
    <stop offset="1" stop-color="#DEBB69"/>
    </linearGradient>
    <linearGradient id="paint14_linear_6_87" x1="7.00186" y1="2.31091" x2="7.00186" y2="18.6766" gradientUnits="userSpaceOnUse">
    <stop stop-color="#C39F4B"/>
    <stop offset="1" stop-color="#DEBB69"/>
    </linearGradient>
    <linearGradient id="paint15_linear_6_87" x1="5.45916" y1="6.92468" x2="5.45916" y2="8.60768" gradientUnits="userSpaceOnUse">
    <stop stop-color="#C39F4B"/>
    <stop offset="1" stop-color="#DEBB69"/>
    </linearGradient>
    <linearGradient id="paint16_linear_6_87" x1="4.47258" y1="8.75281" x2="4.47258" y2="10.3197" gradientUnits="userSpaceOnUse">
    <stop stop-color="#C39F4B"/>
    <stop offset="1" stop-color="#DEBB69"/>
    </linearGradient>
    <linearGradient id="paint17_linear_6_87" x1="3.16681" y1="9.71033" x2="3.16681" y2="11.2773" gradientUnits="userSpaceOnUse">
    <stop stop-color="#C39F4B"/>
    <stop offset="1" stop-color="#DEBB69"/>
    </linearGradient>
    <linearGradient id="paint18_linear_6_87" x1="5.45916" y1="2.427" x2="5.45916" y2="4.11002" gradientUnits="userSpaceOnUse">
    <stop stop-color="#C39F4B"/>
    <stop offset="1" stop-color="#DEBB69"/>
    </linearGradient>
    <linearGradient id="paint19_linear_6_87" x1="4.47258" y1="4.25513" x2="4.47258" y2="5.82204" gradientUnits="userSpaceOnUse">
    <stop stop-color="#C39F4B"/>
    <stop offset="1" stop-color="#DEBB69"/>
    </linearGradient>
    <linearGradient id="paint20_linear_6_87" x1="5.45916" y1="11.3934" x2="5.45916" y2="13.0764" gradientUnits="userSpaceOnUse">
    <stop stop-color="#C39F4B"/>
    <stop offset="1" stop-color="#DEBB69"/>
    </linearGradient>
    <linearGradient id="paint21_linear_6_87" x1="4.47258" y1="13.2214" x2="4.47258" y2="14.7883" gradientUnits="userSpaceOnUse">
    <stop stop-color="#C39F4B"/>
    <stop offset="1" stop-color="#DEBB69"/>
    </linearGradient>
    <linearGradient id="paint22_linear_6_87" x1="7.63352" y1="3.79077" x2="7.63352" y2="5.47377" gradientUnits="userSpaceOnUse">
    <stop stop-color="#C39F4B"/>
    <stop offset="1" stop-color="#DEBB69"/>
    </linearGradient>
    <linearGradient id="paint23_linear_6_87" x1="8.6201" y1="5.6189" x2="8.6201" y2="7.18582" gradientUnits="userSpaceOnUse">
    <stop stop-color="#C39F4B"/>
    <stop offset="1" stop-color="#DEBB69"/>
    </linearGradient>
    <linearGradient id="paint24_linear_6_87" x1="9.92589" y1="6.57654" x2="9.92589" y2="8.14347" gradientUnits="userSpaceOnUse">
    <stop stop-color="#C39F4B"/>
    <stop offset="1" stop-color="#DEBB69"/>
    </linearGradient>
    <linearGradient id="paint25_linear_6_87" x1="7.63352" y1="9.07202" x2="7.63352" y2="10.755" gradientUnits="userSpaceOnUse">
    <stop stop-color="#C39F4B"/>
    <stop offset="1" stop-color="#DEBB69"/>
    </linearGradient>
    <linearGradient id="paint26_linear_6_87" x1="8.6201" y1="10.9" x2="8.6201" y2="12.467" gradientUnits="userSpaceOnUse">
    <stop stop-color="#C39F4B"/>
    <stop offset="1" stop-color="#DEBB69"/>
    </linearGradient>
    <linearGradient id="paint27_linear_6_87" x1="6.06369" y1="0.862061" x2="6.06369" y2="2.16783" gradientUnits="userSpaceOnUse">
    <stop stop-color="#C39F4B"/>
    <stop offset="1" stop-color="#DEBB69"/>
    </linearGradient>
    <linearGradient id="paint28_linear_6_87" x1="6.90326" y1="0.862061" x2="6.90326" y2="2.16783" gradientUnits="userSpaceOnUse">
    <stop stop-color="#C39F4B"/>
    <stop offset="1" stop-color="#DEBB69"/>
    </linearGradient>
    <linearGradient id="paint29_linear_6_87" x1="23.8396" y1="6.77966" x2="23.8396" y2="8.08544" gradientUnits="userSpaceOnUse">
    <stop stop-color="#C39F4B"/>
    <stop offset="1" stop-color="#DEBB69"/>
    </linearGradient>
    <linearGradient id="paint30_linear_6_87" x1="24.6811" y1="6.77966" x2="24.6811" y2="8.08544" gradientUnits="userSpaceOnUse">
    <stop stop-color="#C39F4B"/>
    <stop offset="1" stop-color="#DEBB69"/>
    </linearGradient>
    </defs>
</svg>
