<svg width="10" height="6" viewBox="0 0 10 6" fill="none" xmlns="http://www.w3.org/2000/svg">
    <path d="M5.07074 0.294948C4.95374 0.358068 4.8808 0.47809 4.8808 0.608632V2.64136H0.867147C0.664482 2.64136 0.5 2.80202 0.5 2.99999C0.5 3.19795 0.664482 3.35862 0.867147 3.35862H4.8808V5.39134C4.8808 5.52236 4.95374 5.64239 5.07074 5.70503C5.18773 5.76862 5.33068 5.76432 5.44376 5.69498L9.32866 3.30363C9.43538 3.23764 9.5 3.12336 9.5 2.99999C9.5 2.87662 9.43538 2.76233 9.32866 2.69635L5.44376 0.30499C5.38404 0.268649 5.31599 0.25 5.24795 0.25C5.18724 0.25 5.12605 0.265302 5.07074 0.294948Z" fill="#3A1047"/>
</svg>
