<svg width="4" height="6" viewBox="0 0 4 6" fill="none" xmlns="http://www.w3.org/2000/svg">
    <path d="M0.420856 0.204162C0.381803 0.242897 0.350805 0.28898 0.329652 0.339755C0.308498 0.39053 0.297607 0.44499 0.297607 0.499995C0.297607 0.555 0.308498 0.609461 0.329652 0.660235C0.350805 0.71101 0.381803 0.757093 0.420856 0.795828L2.32919 2.70416C2.36824 2.7429 2.39924 2.78898 2.42039 2.83975C2.44154 2.89053 2.45244 2.94499 2.45244 3C2.45244 3.055 2.44154 3.10946 2.42039 3.16024C2.39924 3.21101 2.36824 3.25709 2.32919 3.29583L0.420856 5.20416C0.381803 5.2429 0.350805 5.28898 0.329652 5.33975C0.308498 5.39053 0.297607 5.44499 0.297607 5.5C0.297607 5.555 0.308498 5.60946 0.329652 5.66024C0.350805 5.71101 0.381803 5.75709 0.420856 5.79583C0.498924 5.87343 0.604529 5.91699 0.714606 5.91699C0.824683 5.91699 0.930288 5.87343 1.00836 5.79583L2.92085 3.88333C3.15494 3.64895 3.28642 3.33125 3.28642 3C3.28642 2.66874 3.15494 2.35104 2.92085 2.11666L1.00836 0.204162C0.930288 0.126557 0.824683 0.0829978 0.714606 0.0829978C0.604529 0.0829978 0.498924 0.126557 0.420856 0.204162Z" fill="#050109"/>
</svg>
