<svg width="18" height="18" viewBox="0 0 18 18" fill="none" xmlns="http://www.w3.org/2000/svg">
    <path fill-rule="evenodd" clip-rule="evenodd" d="M10.7677 8.36101H13.0743C13.424 8.36101 13.6988 8.07187 13.6988 7.7232C13.6988 7.36602 13.424 7.08538 13.0743 7.08538H10.7677C10.418 7.08538 10.1432 7.36602 10.1432 7.7232C10.1432 8.07187 10.418 8.36101 10.7677 8.36101ZM15.8138 3.93966C16.3217 3.93966 16.6548 4.11825 16.9879 4.50944C17.321 4.90064 17.3792 5.46192 17.3043 5.97132L16.5133 11.5501C16.3634 12.6225 15.4641 13.4125 14.4066 13.4125H5.32198C4.21451 13.4125 3.29856 12.546 3.20696 11.4234L2.44089 2.15292L1.18354 1.93181C0.850465 1.87228 0.617313 1.54061 0.675601 1.20044C0.733889 0.852619 1.05864 0.622154 1.40004 0.67403L3.38599 0.979332C3.6691 1.03121 3.87727 1.26848 3.90225 1.55762L4.06046 3.46257C4.08544 3.73556 4.30194 3.93966 4.5684 3.93966H15.8138ZM5.18858 14.7566C4.48913 14.7566 3.9229 15.3349 3.9229 16.0493C3.9229 16.7551 4.48913 17.3334 5.18858 17.3334C5.87971 17.3334 6.44594 16.7551 6.44594 16.0493C6.44594 15.3349 5.87971 14.7566 5.18858 14.7566ZM14.5563 14.7566C13.8568 14.7566 13.2906 15.3349 13.2906 16.0493C13.2906 16.7551 13.8568 17.3334 14.5563 17.3334C15.2474 17.3334 15.8136 16.7551 15.8136 16.0493C15.8136 15.3349 15.2474 14.7566 14.5563 14.7566Z" fill="#2F3132"/>
</svg>
