<svg width="26" height="24" viewBox="0 0 26 24" fill="none" xmlns="http://www.w3.org/2000/svg">
    <path d="M12.4294 0.75623C12.609 0.203443 13.391 0.203444 13.5706 0.75623L16.0085 8.25917C16.0888 8.50639 16.3192 8.67376 16.5791 8.67376H24.4682C25.0494 8.67376 25.2911 9.41753 24.8209 9.75917L18.4385 14.3962C18.2282 14.549 18.1402 14.8199 18.2205 15.0671L20.6584 22.57C20.838 23.1228 20.2053 23.5825 19.7351 23.2408L13.3527 18.6038C13.1424 18.451 12.8576 18.451 12.6473 18.6038L6.26494 23.2408C5.79472 23.5825 5.16203 23.1228 5.34164 22.57L7.77949 15.0671C7.85982 14.8199 7.77182 14.549 7.56153 14.3962L1.17915 9.75917C0.708918 9.41753 0.950584 8.67376 1.53182 8.67376H9.42088C9.68081 8.67376 9.91119 8.50638 9.99151 8.25917L12.4294 0.75623Z" fill="#EFF1F4"/>
</svg>
