<svg width="19" height="13" viewBox="0 0 19 13" fill="none" xmlns="http://www.w3.org/2000/svg">
    <path d="M15.2 0.039978H3.8L0 6.11998V6.49996V12.9599H19V6.49996V6.11998L15.2 0.039978ZM4.256 0.799978H14.744L18.088 6.11998H12.92V7.63998C12.92 8.47596 12.236 9.15998 11.4 9.15998H7.6C6.76398 9.15998 6.08 8.47596 6.08 7.63998V6.11998H0.912L4.256 0.799978ZM18.24 12.2H0.76V6.87998H5.32V8.02C5.32 9.084 6.15602 9.91998 7.21998 9.91998H11.78C12.844 9.91998 13.68 9.084 13.68 8.02V6.87998H18.24V12.2Z" fill="black" fill-opacity="0.26"/>
</svg>
