<svg width="10" height="10" viewBox="0 0 10 10" fill="none" xmlns="http://www.w3.org/2000/svg">
    <rect width="10" height="10" rx="5" fill="#0DC143"/>
    <path d="M7.23973 2.75247C6.70369 2.20067 5.9627 1.90112 5.20594 1.90112C3.59784 1.90112 2.30504 3.20968 2.32081 4.80202C2.32081 5.30653 2.4627 5.79527 2.69919 6.23671L2.28928 7.73446L3.81856 7.34031C4.24423 7.5768 4.7172 7.68716 5.19018 7.68716C6.78252 7.68716 8.07531 6.3786 8.07531 4.78626C8.07531 4.01374 7.77576 3.28851 7.23973 2.75247ZM5.20594 7.19842C4.78027 7.19842 4.35459 7.08806 3.99198 6.86734L3.89738 6.82004L2.98297 7.05653L3.21946 6.15788L3.15639 6.06328C2.4627 4.94392 2.79378 3.46193 3.92892 2.76824C5.06405 2.07455 6.53027 2.40563 7.22396 3.54076C7.91766 4.6759 7.58657 6.14211 6.45144 6.83581C6.08883 7.07229 5.64739 7.19842 5.20594 7.19842ZM6.59333 5.44842L6.41991 5.36959C6.41991 5.36959 6.16766 5.25923 6.01 5.1804C5.99423 5.1804 5.97847 5.16464 5.9627 5.16464C5.9154 5.16464 5.88387 5.1804 5.85234 5.19617C5.85234 5.19617 5.83657 5.21193 5.61585 5.46419C5.60009 5.49572 5.56856 5.51148 5.53702 5.51148H5.52126C5.50549 5.51148 5.47396 5.49572 5.4582 5.47995L5.37937 5.44842C5.20594 5.36959 5.04829 5.275 4.92216 5.14887C4.89063 5.11734 4.84333 5.08581 4.8118 5.05428C4.70144 4.94392 4.59108 4.81779 4.51225 4.6759L4.49648 4.64437C4.48072 4.6286 4.48072 4.61283 4.46495 4.5813C4.46495 4.54977 4.46495 4.51824 4.48072 4.50247C4.48072 4.50247 4.54378 4.42365 4.59108 4.37635C4.62261 4.34482 4.63838 4.29752 4.66991 4.26599C4.70144 4.21869 4.7172 4.15563 4.70144 4.10833C4.68567 4.0295 4.49648 3.60383 4.44919 3.50923C4.41766 3.46193 4.38612 3.44617 4.33883 3.4304H4.29153C4.26 3.4304 4.2127 3.4304 4.1654 3.4304C4.13387 3.4304 4.10234 3.44617 4.07081 3.44617L4.05504 3.46193C4.02351 3.4777 3.99198 3.50923 3.96045 3.525C3.92892 3.55653 3.91315 3.58806 3.88162 3.61959C3.77126 3.76148 3.7082 3.93491 3.7082 4.10833C3.7082 4.23446 3.73973 4.36058 3.78702 4.47094L3.80279 4.51824C3.94468 4.81779 4.13387 5.08581 4.38612 5.32229L4.44919 5.38536C4.49648 5.43265 4.54378 5.46419 4.57531 5.51148C4.90639 5.79527 5.28477 6.00022 5.71045 6.11058C5.75775 6.12635 5.82081 6.12635 5.86811 6.14211C5.9154 6.14211 5.97847 6.14211 6.02576 6.14211C6.10459 6.14211 6.19919 6.11058 6.26225 6.07905C6.30955 6.04752 6.34108 6.04752 6.37261 6.01599L6.40414 5.98446C6.43567 5.95292 6.46721 5.93716 6.49874 5.90563C6.53027 5.8741 6.5618 5.84256 6.57757 5.81103C6.6091 5.74797 6.62486 5.66914 6.64063 5.59031C6.64063 5.55878 6.64063 5.51148 6.64063 5.47995C6.64063 5.47995 6.62486 5.46419 6.59333 5.44842Z" fill="white"/>
</svg>
