<svg width="10" height="10" viewBox="0 0 10 10" fill="none" xmlns="http://www.w3.org/2000/svg">
    <rect width="10" height="10" rx="5" fill="#675DA9"/>
    <path d="M7.44865 2.53837C7.28325 2.38631 6.61367 1.89946 5.12113 1.8928C5.12113 1.8928 3.36182 1.78609 2.50417 2.57304C2.02666 3.05055 1.8586 3.74814 1.84126 4.61513C1.82392 5.48078 1.80125 7.10404 3.36582 7.5442H3.36715L3.36582 8.21511C3.36582 8.21511 3.35648 8.48721 3.53521 8.5419C3.75129 8.60859 3.87934 8.40184 4.08608 8.1791C4.19946 8.05638 4.35551 7.87765 4.47422 7.74027C5.54395 7.82963 6.36692 7.62423 6.46028 7.59355C6.67636 7.52286 7.89948 7.3668 8.09822 5.74354C8.30362 4.07359 7.99818 3.01587 7.44865 2.53837ZM7.63004 5.62616C7.46198 6.98132 6.47095 7.06669 6.28822 7.12538C6.21086 7.15072 5.48793 7.33079 4.57826 7.27076C4.57826 7.27076 3.90068 8.0884 3.68994 8.30047C3.65659 8.33382 3.61791 8.34716 3.59257 8.34049C3.55656 8.33115 3.54589 8.28847 3.54722 8.22578C3.54722 8.13508 3.55255 7.10937 3.55255 7.10937C3.55122 7.10937 3.55122 7.10937 3.55255 7.10937C2.22807 6.74257 2.30543 5.36073 2.3201 4.6378C2.33478 3.91487 2.47083 3.32132 2.87497 2.92251C3.59924 2.26627 5.09445 2.36363 5.09445 2.36363C6.35625 2.36897 6.96047 2.74911 7.10052 2.87582C7.56602 3.27597 7.80344 4.22965 7.63004 5.62616Z" fill="white"/>
    <path d="M5.73603 4.66323C5.69201 4.66323 5.65467 4.62855 5.652 4.5832C5.63733 4.29643 5.50261 4.15637 5.22784 4.1417C5.18116 4.13903 5.14515 4.09902 5.14781 4.05234C5.15048 4.00565 5.1905 3.96964 5.23718 3.97231C5.59998 3.99231 5.80272 4.20039 5.82139 4.57386C5.82406 4.62054 5.78805 4.66056 5.74136 4.66189C5.7387 4.66323 5.73736 4.66323 5.73603 4.66323Z" fill="white"/>
    <path d="M6.16817 4.80723H6.16684C6.12016 4.80589 6.08281 4.76721 6.08414 4.72053C6.09081 4.43242 6.00812 4.199 5.83205 4.00693C5.65732 3.81486 5.4159 3.71083 5.09712 3.68815C5.05043 3.68415 5.01575 3.64414 5.01975 3.59745C5.02376 3.55077 5.06377 3.51609 5.11045 3.52009C5.47059 3.54677 5.75469 3.67215 5.95743 3.89356C6.16151 4.11631 6.26021 4.39508 6.25354 4.72453C6.2522 4.77121 6.21352 4.80723 6.16817 4.80723Z" fill="white"/>
    <path d="M6.611 4.98053C6.56431 4.98053 6.52697 4.94318 6.52697 4.8965C6.52297 4.38031 6.37491 3.98683 6.07347 3.69206C5.77603 3.40129 5.39855 3.25323 4.95439 3.24923C4.90771 3.24923 4.87036 3.21055 4.87036 3.16386C4.87036 3.11718 4.90904 3.07983 4.95439 3.07983C5.4439 3.08384 5.86006 3.2479 6.18951 3.57068C6.5203 3.89346 6.68969 4.33896 6.69503 4.89383C6.69636 4.94185 6.65902 4.98053 6.611 4.98053C6.61233 4.98053 6.61233 4.98053 6.611 4.98053Z" fill="white"/>
    <path d="M5.24784 5.70756C5.24784 5.70756 5.36655 5.71823 5.43057 5.63954L5.55462 5.48348C5.61464 5.40612 5.76003 5.35677 5.90141 5.43546C5.98011 5.47948 6.12283 5.56751 6.21086 5.63287C6.30556 5.70223 6.49763 5.86229 6.49896 5.86362C6.591 5.94098 6.61234 6.05436 6.54965 6.17573C6.54965 6.17573 6.54965 6.17707 6.54965 6.1784C6.48562 6.29178 6.39893 6.39848 6.29089 6.49718C6.28955 6.49718 6.28955 6.49852 6.28822 6.49852C6.19885 6.57321 6.11082 6.61589 6.02546 6.62523C6.01479 6.6279 6.00278 6.6279 5.98678 6.6279C5.94943 6.6279 5.91208 6.62256 5.87473 6.61056L5.87207 6.60656C5.73868 6.56921 5.51727 6.47584 5.14914 6.27177C4.90905 6.13972 4.71031 6.005 4.54091 5.87029C4.45155 5.7996 4.36085 5.7209 4.26748 5.62753C4.26481 5.62487 4.26081 5.62086 4.25814 5.6182C4.25548 5.61553 4.25147 5.61153 4.24881 5.60886C4.24614 5.60619 4.24214 5.60219 4.23947 5.59952C4.2368 5.59686 4.2328 5.59285 4.23013 5.59019C4.1381 5.49682 4.05807 5.40612 3.98738 5.31675C3.85266 5.14869 3.71795 4.94862 3.5859 4.70853C3.38182 4.33906 3.28846 4.11765 3.25111 3.9856L3.24711 3.98293C3.2351 3.94558 3.22977 3.90824 3.22977 3.87089C3.22977 3.85488 3.22977 3.84288 3.23243 3.83221C3.24311 3.74551 3.28579 3.65881 3.35915 3.56945C3.35915 3.56811 3.36048 3.56811 3.36048 3.56678C3.45918 3.45741 3.56589 3.37204 3.67926 3.30802C3.67926 3.30802 3.6806 3.30802 3.68193 3.30802C3.80198 3.24533 3.91535 3.26667 3.99405 3.3587C3.99405 3.3587 4.15544 3.55211 4.2248 3.64681C4.29015 3.73617 4.37819 3.87756 4.4222 3.95626C4.5009 4.09764 4.45155 4.24303 4.37419 4.30305L4.21813 4.42709C4.13943 4.49112 4.1501 4.60983 4.1501 4.60983C4.1501 4.60983 4.38085 5.48748 5.24784 5.70756Z" fill="white"/>
</svg>
