<svg width="6" height="4" viewBox="0 0 6 4" fill="none" xmlns="http://www.w3.org/2000/svg">
    <path d="M5.79578 0.420856C5.75704 0.381803 5.71096 0.350805 5.66018 0.329652C5.60941 0.308498 5.55495 0.297607 5.49994 0.297607C5.44494 0.297607 5.39048 0.308498 5.3397 0.329652C5.28893 0.350805 5.24285 0.381803 5.20411 0.420856L3.29578 2.32919C3.25704 2.36824 3.21096 2.39924 3.16018 2.42039C3.10941 2.44154 3.05495 2.45244 2.99994 2.45244C2.94494 2.45244 2.89048 2.44154 2.8397 2.42039C2.78893 2.39924 2.74285 2.36824 2.70411 2.32919L0.795777 0.420856C0.757042 0.381803 0.710959 0.350805 0.660184 0.329652C0.609409 0.308498 0.554949 0.297607 0.499944 0.297607C0.444939 0.297607 0.390478 0.308498 0.339703 0.329652C0.288929 0.350805 0.242845 0.381803 0.20411 0.420856C0.126506 0.498924 0.0829468 0.604529 0.0829468 0.714606C0.0829468 0.824683 0.126506 0.930288 0.20411 1.00836L2.11661 2.92085C2.35099 3.15494 2.66869 3.28642 2.99994 3.28642C3.33119 3.28642 3.6489 3.15494 3.88328 2.92085L5.79578 1.00836C5.87338 0.930288 5.91694 0.824683 5.91694 0.714606C5.91694 0.604529 5.87338 0.498924 5.79578 0.420856Z" fill="#3A1047"/>
</svg>
