<svg width="4" height="6" viewBox="0 0 4 6" fill="none" xmlns="http://www.w3.org/2000/svg">
    <path d="M3.57914 0.204162C3.6182 0.242897 3.64919 0.28898 3.67035 0.339755C3.6915 0.39053 3.70239 0.44499 3.70239 0.499995C3.70239 0.555 3.6915 0.609461 3.67035 0.660235C3.64919 0.71101 3.6182 0.757093 3.57914 0.795828L1.67081 2.70416C1.63176 2.7429 1.60076 2.78898 1.57961 2.83975C1.55846 2.89053 1.54756 2.94499 1.54756 3C1.54756 3.055 1.55846 3.10946 1.57961 3.16024C1.60076 3.21101 1.63176 3.25709 1.67081 3.29583L3.57914 5.20416C3.6182 5.2429 3.64919 5.28898 3.67035 5.33975C3.6915 5.39053 3.70239 5.44499 3.70239 5.5C3.70239 5.555 3.6915 5.60946 3.67035 5.66024C3.64919 5.71101 3.6182 5.75709 3.57914 5.79583C3.50108 5.87343 3.39547 5.91699 3.28539 5.91699C3.17532 5.91699 3.06971 5.87343 2.99164 5.79583L1.07915 3.88333C0.845065 3.64895 0.713582 3.33125 0.713582 3C0.713582 2.66874 0.845065 2.35104 1.07915 2.11666L2.99164 0.204162C3.06971 0.126557 3.17532 0.0829978 3.28539 0.0829978C3.39547 0.0829978 3.50108 0.126557 3.57914 0.204162Z" fill="#050109"/>
</svg>
