<svg width="10" height="10" viewBox="0 0 10 10" fill="none" xmlns="http://www.w3.org/2000/svg">
    <rect width="10" height="10" rx="5" fill="#419FD9"/>
    <rect width="10" height="10" rx="5" fill="url(#paint0_linear_107_159)"/>
    <path d="M2.24737 4.88986C3.70139 4.24305 4.67097 3.81664 5.1561 3.61061C6.54124 3.02237 6.82906 2.92019 7.01666 2.91678C7.05792 2.91607 7.15017 2.92652 7.20993 2.97602C7.26039 3.01783 7.27428 3.0743 7.28092 3.11394C7.28756 3.15357 7.29584 3.24386 7.28926 3.31441C7.2142 4.11967 6.88941 6.07381 6.72417 6.9757C6.65426 7.35733 6.51659 7.48529 6.38331 7.49781C6.09366 7.52502 5.87372 7.30237 5.59318 7.11461C5.1542 6.8208 4.9062 6.6379 4.48009 6.3512C3.98764 6.01987 4.30688 5.83776 4.58752 5.54015C4.66096 5.46226 5.93715 4.27707 5.96185 4.16955C5.96494 4.15611 5.96781 4.10598 5.93864 4.07952C5.90948 4.05305 5.86644 4.0621 5.83538 4.0693C5.79135 4.0795 5.09006 4.55277 3.73153 5.48909C3.53247 5.62866 3.35217 5.69665 3.19063 5.69309C3.01254 5.68916 2.66997 5.59028 2.41531 5.50576C2.10295 5.40209 1.85469 5.34728 1.87631 5.17122C1.88757 5.07951 2.01126 4.98573 2.24737 4.88986Z" fill="white"/>
    <defs>
    <linearGradient id="paint0_linear_107_159" x1="5" y1="0" x2="5" y2="9.9258" gradientUnits="userSpaceOnUse">
    <stop stop-color="#2AABEE"/>
    <stop offset="1" stop-color="#229ED9"/>
    </linearGradient>
    </defs>
</svg>
