<svg width="14" height="14" viewBox="0 0 14 14" fill="none" xmlns="http://www.w3.org/2000/svg">
    <g clip-path="url(#clip0_105_168)">
    <path d="M2.33333 0H4.08333C4.70217 0 5.29566 0.245833 5.73325 0.683417C6.17083 1.121 6.41667 1.71449 6.41667 2.33333V4.08333C6.41667 4.70217 6.17083 5.29566 5.73325 5.73325C5.29566 6.17083 4.70217 6.41667 4.08333 6.41667H2.33333C1.71449 6.41667 1.121 6.17083 0.683417 5.73325C0.245833 5.29566 0 4.70217 0 4.08333V2.33333C0 1.71449 0.245833 1.121 0.683417 0.683417C1.121 0.245833 1.71449 0 2.33333 0Z" fill="#3A1047"/>
    <path d="M11.6666 0H9.91658C9.29774 0 8.70425 0.245833 8.26667 0.683418C7.82908 1.121 7.58325 1.7145 7.58325 2.33333V4.08334C7.58325 4.70218 7.82908 5.29567 8.26667 5.73325C8.70425 6.17084 9.29774 6.41667 9.91658 6.41667H11.6666C12.2854 6.41667 12.8789 6.17084 13.3165 5.73325C13.7541 5.29567 13.9999 4.70218 13.9999 4.08334V2.33333C13.9999 1.7145 13.7541 1.121 13.3165 0.683418C12.8789 0.245833 12.2854 0 11.6666 0V0ZM12.8332 4.08334C12.8332 4.39276 12.7103 4.6895 12.4915 4.90829C12.2727 5.12709 11.976 5.25 11.6666 5.25H9.91658C9.60716 5.25 9.31042 5.12709 9.09163 4.90829C8.87283 4.6895 8.74992 4.39276 8.74992 4.08334V2.33333C8.74992 2.02392 8.87283 1.72717 9.09163 1.50838C9.31042 1.28958 9.60716 1.16667 9.91658 1.16667H11.6666C11.976 1.16667 12.2727 1.28958 12.4915 1.50838C12.7103 1.72717 12.8332 2.02392 12.8332 2.33333V4.08334Z" fill="#3A1047"/>
    <path d="M4.08333 7.58325H2.33333C1.71449 7.58325 1.121 7.82908 0.683417 8.26667C0.245833 8.70426 0 9.29775 0 9.91659L0 11.6666C0 12.2854 0.245833 12.8789 0.683417 13.3165C1.121 13.7541 1.71449 13.9999 2.33333 13.9999H4.08333C4.70217 13.9999 5.29566 13.7541 5.73325 13.3165C6.17083 12.8789 6.41667 12.2854 6.41667 11.6666V9.91659C6.41667 9.29775 6.17083 8.70426 5.73325 8.26667C5.29566 7.82908 4.70217 7.58325 4.08333 7.58325ZM5.25 11.6666C5.25 11.976 5.12708 12.2728 4.90829 12.4915C4.6895 12.7103 4.39275 12.8333 4.08333 12.8333H2.33333C2.02391 12.8333 1.72717 12.7103 1.50838 12.4915C1.28958 12.2728 1.16667 11.976 1.16667 11.6666V9.91659C1.16667 9.60717 1.28958 9.31042 1.50838 9.09163C1.72717 8.87284 2.02391 8.74992 2.33333 8.74992H4.08333C4.39275 8.74992 4.6895 8.87284 4.90829 9.09163C5.12708 9.31042 5.25 9.60717 5.25 9.91659V11.6666Z" fill="#3A1047"/>
    <path d="M11.6666 7.58325H9.91658C9.29774 7.58325 8.70425 7.82908 8.26667 8.26667C7.82908 8.70426 7.58325 9.29775 7.58325 9.91659V11.6666C7.58325 12.2854 7.82908 12.8789 8.26667 13.3165C8.70425 13.7541 9.29774 13.9999 9.91658 13.9999H11.6666C12.2854 13.9999 12.8789 13.7541 13.3165 13.3165C13.7541 12.8789 13.9999 12.2854 13.9999 11.6666V9.91659C13.9999 9.29775 13.7541 8.70426 13.3165 8.26667C12.8789 7.82908 12.2854 7.58325 11.6666 7.58325ZM12.8332 11.6666C12.8332 11.976 12.7103 12.2728 12.4915 12.4915C12.2727 12.7103 11.976 12.8333 11.6666 12.8333H9.91658C9.60716 12.8333 9.31042 12.7103 9.09163 12.4915C8.87283 12.2728 8.74992 11.976 8.74992 11.6666V9.91659C8.74992 9.60717 8.87283 9.31042 9.09163 9.09163C9.31042 8.87284 9.60716 8.74992 9.91658 8.74992H11.6666C11.976 8.74992 12.2727 8.87284 12.4915 9.09163C12.7103 9.31042 12.8332 9.60717 12.8332 9.91659V11.6666Z" fill="#3A1047"/>
    </g>
    <defs>
    <clipPath id="clip0_105_168">
    <rect width="14" height="14" fill="white"/>
    </clipPath>
    </defs>
</svg>
