<svg width="14" height="14" viewBox="0 0 14 14" fill="none" xmlns="http://www.w3.org/2000/svg">
    <path d="M7 1.6747C8.72289 1.6747 8.95783 1.6747 9.66265 1.6747C10.2892 1.6747 10.6024 1.83133 10.8373 1.90964C11.1506 2.06627 11.3855 2.14458 11.6205 2.37952C11.8554 2.61446 12.012 2.8494 12.0904 3.16265C12.1687 3.39759 12.247 3.71084 12.3253 4.33735C12.3253 5.04217 12.3253 5.1988 12.3253 7C12.3253 8.80121 12.3253 8.95783 12.3253 9.66265C12.3253 10.2892 12.1687 10.6024 12.0904 10.8373C11.9337 11.1506 11.8554 11.3855 11.6205 11.6205C11.3855 11.8554 11.1506 12.012 10.8373 12.0904C10.6024 12.1687 10.2892 12.247 9.66265 12.3253C8.95783 12.3253 8.80121 12.3253 7 12.3253C5.1988 12.3253 5.04217 12.3253 4.33735 12.3253C3.71084 12.3253 3.39759 12.1687 3.16265 12.0904C2.8494 11.9337 2.61446 11.8554 2.37952 11.6205C2.14458 11.3855 1.98795 11.1506 1.90964 10.8373C1.83133 10.6024 1.75301 10.2892 1.6747 9.66265C1.6747 8.95783 1.6747 8.80121 1.6747 7C1.6747 5.1988 1.6747 5.04217 1.6747 4.33735C1.6747 3.71084 1.83133 3.39759 1.90964 3.16265C2.06627 2.8494 2.14458 2.61446 2.37952 2.37952C2.61446 2.14458 2.8494 1.98795 3.16265 1.90964C3.39759 1.83133 3.71084 1.75301 4.33735 1.6747C5.04217 1.6747 5.27711 1.6747 7 1.6747ZM7 0.5C5.1988 0.5 5.04217 0.5 4.33735 0.5C3.63253 0.5 3.16265 0.656627 2.77109 0.813253C2.37952 0.96988 1.98795 1.20482 1.59639 1.59639C1.20482 1.98795 1.04819 2.30121 0.813253 2.77109C0.656627 3.16265 0.578313 3.63253 0.5 4.33735C0.5 5.04217 0.5 5.27711 0.5 7C0.5 8.80121 0.5 8.95783 0.5 9.66265C0.5 10.3675 0.656627 10.8373 0.813253 11.2289C0.96988 11.6205 1.20482 12.012 1.59639 12.4036C1.98795 12.7952 2.30121 12.9518 2.77109 13.1867C3.16265 13.3434 3.63253 13.4217 4.33735 13.5C5.04217 13.5 5.27711 13.5 7 13.5C8.72289 13.5 8.95783 13.5 9.66265 13.5C10.3675 13.5 10.8373 13.3434 11.2289 13.1867C11.6205 13.0301 12.012 12.7952 12.4036 12.4036C12.7952 12.012 12.9518 11.6988 13.1867 11.2289C13.3434 10.8373 13.4217 10.3675 13.5 9.66265C13.5 8.95783 13.5 8.72289 13.5 7C13.5 5.27711 13.5 5.04217 13.5 4.33735C13.5 3.63253 13.3434 3.16265 13.1867 2.77109C13.0301 2.37952 12.7952 1.98795 12.4036 1.59639C12.012 1.20482 11.6988 1.04819 11.2289 0.813253C10.8373 0.656627 10.3675 0.578313 9.66265 0.5C8.95783 0.5 8.80121 0.5 7 0.5Z" fill="white"/>
    <path d="M7 3.63253C5.12048 3.63253 3.63253 5.12048 3.63253 7C3.63253 8.87952 5.12048 10.3675 7 10.3675C8.87952 10.3675 10.3675 8.87952 10.3675 7C10.3675 5.12048 8.87952 3.63253 7 3.63253ZM7 9.19277C5.8253 9.19277 4.80723 8.25301 4.80723 7C4.80723 5.8253 5.74699 4.80723 7 4.80723C8.1747 4.80723 9.19277 5.74699 9.19277 7C9.19277 8.1747 8.1747 9.19277 7 9.19277Z" fill="white"/>
    <path d="M10.4458 4.33735C10.8783 4.33735 11.2289 3.98673 11.2289 3.55422C11.2289 3.12171 10.8783 2.77109 10.4458 2.77109C10.0133 2.77109 9.66265 3.12171 9.66265 3.55422C9.66265 3.98673 10.0133 4.33735 10.4458 4.33735Z" fill="white"/>
</svg>
