<svg width="99" height="22" viewBox="0 0 99 22" fill="none" xmlns="http://www.w3.org/2000/svg">
    <path fill-rule="evenodd" clip-rule="evenodd" d="M84.2199 7.96074C85.0733 7.11107 86.1078 6.69929 87.3233 6.72544C88.7845 6.72544 89.9354 7.32023 90.7759 8.50977L89.5733 9.49016C89.0044 8.67971 88.2479 8.27444 87.3039 8.27444C86.5281 8.27444 85.8944 8.52937 85.4031 9.03917C84.9246 9.54898 84.6854 10.2026 84.6854 11C84.6854 11.8104 84.9375 12.4705 85.4419 12.9803C85.9462 13.5032 86.5992 13.7646 87.4009 13.7646C88.3449 13.7646 89.0625 13.4183 89.5539 12.7255V12.0588H87.8664L86.7996 10.5882H91.222V13.0392C90.847 13.7058 90.3168 14.2483 89.6315 14.6666C88.9591 15.0718 88.1897 15.2745 87.3233 15.2745C86.1337 15.3006 85.1056 14.8888 84.2393 14.0392C82.5324 12.3725 82.513 9.62741 84.2199 7.96074ZM99 6.86268L96.944 10.5882H95.1595L97.1574 6.86268H99ZM96.0324 15.1176H94.2867V12.3529L91.222 6.86268H93.0841L96.0324 12.2745V15.1176ZM77.1983 6.86268H78.944C80.4569 6.86268 81.6983 8.11758 81.6983 9.64699C81.6983 10.7254 81.097 11.6666 80.2048 12.1176L82.3578 15.1176H80.4763L77.4893 10.9411H78.7113C79.4289 10.9411 79.9914 10.3529 79.9914 9.64699C79.9914 8.94111 79.4289 8.3529 78.7113 8.3529H77.3729V15.1176H75.7048V6.86268H77.1983ZM27.6401 13.4509L28.7845 12.5686C29.3664 13.379 30.0388 13.7843 30.8018 13.7843C31.1638 13.7843 31.4483 13.6993 31.6552 13.5294C31.8621 13.3725 31.9656 13.1503 31.9656 12.8627C31.9656 12.6274 31.8944 12.4444 31.7522 12.3137C31.61 12.183 31.3319 12.0261 30.9182 11.8431L30.0453 11.4313C28.7263 10.8431 28.0669 10.0588 28.0669 9.05875C28.0669 8.35287 28.319 7.79081 28.8233 7.37251C29.3406 6.94113 29.9871 6.72544 30.763 6.72544C31.3837 6.72544 31.9203 6.86271 32.3729 7.13722C32.8384 7.4248 33.2069 7.81041 33.4785 8.29407L32.3341 9.17642C31.9074 8.5359 31.3837 8.21565 30.763 8.21565C30.4785 8.21565 30.2393 8.28752 30.0453 8.43131C29.8513 8.5751 29.7544 8.77118 29.7544 9.01955C29.7544 9.2287 29.8255 9.39865 29.9677 9.52937C30.1035 9.66663 30.3363 9.80389 30.7048 9.98036L31.6358 10.3921C32.3341 10.7058 32.8578 11.0391 33.1682 11.4117C33.4914 11.7908 33.6531 12.2549 33.6531 12.8039C33.6531 13.549 33.388 14.1438 32.8578 14.5882C32.3147 15.0457 31.6294 15.2745 30.8018 15.2745C30.1164 15.2745 29.4957 15.1111 28.9397 14.7843C28.3966 14.4575 27.9634 14.013 27.6401 13.4509ZM41.9936 15.1176H39.9763L36.485 10.8235V15.1176H34.8169V6.86268H36.485V10.7058L39.6078 6.86268H42.9052L45.8535 12.2745V15.1176H44.0884V12.3529L41.2759 7.27447L38.4634 10.7647L41.9936 15.1176ZM46.7457 10.5686H44.9613L46.9591 6.86268H48.8018L46.7457 10.5686ZM52.7005 15.1176V6.86268H58.4225V8.37248H54.3686C54.3686 10.111 54.3686 11.8496 54.3686 13.5882H58.3255V15.1176H52.7005ZM57.5884 10.2156V11.647H55.7457L54.4268 10.2156H57.5884ZM65.0949 6.86268H66.763V15.2549H66.2005L61.4677 10.1568V15.1176H59.7996V6.70581H60.3427L65.0949 11.7843V6.86268ZM68.625 15.1176V6.86268H74.347V8.3921H70.2932C70.2932 10.1176 70.2932 11.8496 70.2932 13.5882H74.2694V15.1176H68.625ZM73.4936 10.2156V11.6666H71.6703L70.3319 10.2156H73.4936Z" fill="white"/>
    <path fill-rule="evenodd" clip-rule="evenodd" d="M15.1487 0.862774L5.0819 12.3922L9.5625 12.5294L6.32328 20.9804C2.59914 19.2549 0 15.4314 0 11C0 4.92159 4.86854 0 10.8815 0C12.3944 0 13.8297 0.313754 15.1487 0.862774ZM10.8815 22C16.8944 22 21.7629 17.0785 21.7629 11C21.7629 6.52943 19.125 2.6863 15.3427 0.960813L12.1228 9.54901L16.7004 9.66668L6.53664 21.0784C7.875 21.6667 9.34914 22 10.8815 22Z" fill="white"/>
</svg>
